<svg xmlns="http://www.w3.org/2000/svg" xmlns:xlink="http://www.w3.org/1999/xlink" viewBox="0 0 1154.5 561.24"><defs><style>.cls-1,.cls-12,.cls-13,.cls-14,.cls-16,.cls-17,.cls-20,.cls-3,.cls-5{fill:none;}.cls-2{clip-path:url(#clip-path);}.cls-3,.cls-5{stroke:#b8d8c7;}.cls-12,.cls-13,.cls-14,.cls-16,.cls-17,.cls-20,.cls-22,.cls-3,.cls-5{stroke-linecap:round;stroke-linejoin:round;}.cls-12,.cls-13,.cls-16,.cls-17,.cls-20,.cls-22,.cls-3{stroke-width:1.8px;}.cls-4{fill:#b8d8c7;}.cls-5{stroke-width:1.8px;}.cls-6{fill:#b0d7c0;}.cls-7{fill:#ffe779;}.cls-22,.cls-8{fill:#fff;}.cls-9{fill:#b28d93;}.cls-10{fill:#896068;}.cls-11{fill:#22272e;}.cls-12{stroke:#fff;}.cls-13,.cls-14{stroke:#63737a;}.cls-14{stroke-width:1.8px;}.cls-15{fill:#6dafa7;}.cls-16{stroke:#22272e;}.cls-17{stroke:#89555f;}.cls-18{fill:#63737a;}.cls-19{fill:#f4c2c9;}.cls-20{stroke:#6dafa7;}.cls-21{fill:#f8ab5d;}.cls-22{stroke:#b0d7c0;}</style><clipPath id="clip-path"><path class="cls-1" d="M870.1,434l-520-14.9a48.07,48.07,0,0,1-46.5-43.3l-25.1-248a48.18,48.18,0,0,1,43.11-52.76c1.36-.14,2.72-.22,4.09-.24l578.8-8a48.19,48.19,0,0,1,48.5,54.1l-33.7,270.9A48.27,48.27,0,0,1,870.1,434Z"/></clipPath></defs><title>dashAsset 2PIC</title><g id="Layer_2" data-name="Layer 2"><g id="illustration"><g class="cls-2"><path class="cls-3" d="M723.1,560.34h415.5a15,15,0,0,0,15-15V309.64a15,15,0,0,0-15-15H723.1a15,15,0,0,0-15,15v235.6A15.07,15.07,0,0,0,723.1,560.34Z"/><path class="cls-3" d="M218.5,497.74H637.6a15,15,0,0,0,15-15V138.44a15,15,0,0,0-15-15H218.5a15,15,0,0,0-15,15h0v344.3A15,15,0,0,0,218.5,497.74Z"/><path class="cls-3" d="M381.6,228.34h20.3a4.32,4.32,0,0,0,4.3-3.8l1.6-14.4a4.33,4.33,0,0,0-3.83-4.77,3.71,3.71,0,0,0-.47,0H380a4.34,4.34,0,0,0-4.32,4.36,3.24,3.24,0,0,0,0,.44l1.6,14.4A4.48,4.48,0,0,0,381.6,228.34Z"/><path class="cls-4" d="M394.2,205.34s8-.8,9.6-11.6c0,0-7.2,2.1-9.5,7.2,0,0-1-11.4-6.4-12.5,0,0-2.4,8.5,1.4,12.7,0,0-2.9-4.8-10.3-4.7a13.59,13.59,0,0,0,9.2,8.8"/><path class="cls-3" d="M726.3,344.34h90.2a4.24,4.24,0,0,0,4.2-4.2v-27.4a4.24,4.24,0,0,0-4.2-4.2H726.3a4.24,4.24,0,0,0-4.2,4.2v27.4a4.09,4.09,0,0,0,4,4.2Z"/><path class="cls-4" d="M761,318.24h20.8a1.54,1.54,0,0,0,1.5-1.5h0a1.54,1.54,0,0,0-1.5-1.5H761a1.54,1.54,0,0,0-1.5,1.5h0A1.54,1.54,0,0,0,761,318.24Z"/><path class="cls-3" d="M726.3,390.14h90.2a4.24,4.24,0,0,0,4.2-4.2v-27.4a4.24,4.24,0,0,0-4.2-4.2H726.3a4.24,4.24,0,0,0-4.2,4.2v27.4a4.09,4.09,0,0,0,4,4.2Z"/><path class="cls-4" d="M761,364h20.8a1.54,1.54,0,0,0,1.5-1.5h0a1.54,1.54,0,0,0-1.5-1.5H761a1.54,1.54,0,0,0-1.5,1.5h0A1.54,1.54,0,0,0,761,364Z"/><path class="cls-3" d="M307.6,375.84h90.2a4.24,4.24,0,0,0,4.2-4.2v-27.4a4.24,4.24,0,0,0-4.2-4.2H307.6a4.24,4.24,0,0,0-4.2,4.2v27.4a4.09,4.09,0,0,0,4,4.2Z"/><path class="cls-4" d="M342.3,349.64h20.8a1.54,1.54,0,0,0,1.5-1.5h0a1.54,1.54,0,0,0-1.5-1.5H342.3a1.54,1.54,0,0,0-1.5,1.5h0a1.47,1.47,0,0,0,1.44,1.5Z"/><path class="cls-3" d="M423.4,375.84h90.2a4.24,4.24,0,0,0,4.2-4.2v-27.4a4.24,4.24,0,0,0-4.2-4.2H423.4a4.24,4.24,0,0,0-4.2,4.2v27.4a4.09,4.09,0,0,0,4,4.2Z"/><path class="cls-4" d="M458.1,349.64h20.8a1.54,1.54,0,0,0,1.5-1.5h0a1.54,1.54,0,0,0-1.5-1.5H458.1a1.54,1.54,0,0,0-1.5,1.5h0a1.47,1.47,0,0,0,1.44,1.5Z"/><path class="cls-3" d="M841.2,344.34h90.2a4.24,4.24,0,0,0,4.2-4.2v-27.4a4.24,4.24,0,0,0-4.2-4.2H841.2a4.24,4.24,0,0,0-4.2,4.2v27.4A4.24,4.24,0,0,0,841.2,344.34Z"/><path class="cls-4" d="M876,318.24h20.8a1.54,1.54,0,0,0,1.5-1.5h0a1.54,1.54,0,0,0-1.5-1.5H876a1.54,1.54,0,0,0-1.5,1.5h0a1.47,1.47,0,0,0,1.44,1.5Z"/><path class="cls-3" d="M841.2,390.14h90.2a4.24,4.24,0,0,0,4.2-4.2v-27.4a4.24,4.24,0,0,0-4.2-4.2H841.2a4.24,4.24,0,0,0-4.2,4.2v27.4A4.24,4.24,0,0,0,841.2,390.14Z"/><path class="cls-4" d="M876,364h20.8a1.54,1.54,0,0,0,1.5-1.5h0a1.54,1.54,0,0,0-1.5-1.5H876a1.54,1.54,0,0,0-1.5,1.5h0a1.47,1.47,0,0,0,1.44,1.5Z"/><path class="cls-3" d="M176.2,228.34h455a4.65,4.65,0,0,0,4.6-4.6V144a4.65,4.65,0,0,0-4.6-4.6h-455a4.65,4.65,0,0,0-4.6,4.6v79.7A4.65,4.65,0,0,0,176.2,228.34Z"/><path class="cls-3" d="M176.2,327.24h455a4.65,4.65,0,0,0,4.6-4.6v-79.7a4.65,4.65,0,0,0-4.6-4.6h-455a4.65,4.65,0,0,0-4.6,4.6v79.7A4.65,4.65,0,0,0,176.2,327.24Z"/><rect class="cls-3" x="595.28" y="178.04" width="9.9" height="50.3"/><rect class="cls-3" x="585.04" y="191.65" width="10.3" height="36.6"/><rect class="cls-3" x="296.9" y="276.78" width="9.9" height="50.3"/><rect class="cls-3" x="286.66" y="290.49" width="10.3" height="36.6"/><rect class="cls-3" x="317.09" y="276.78" width="9.9" height="50.3"/><rect class="cls-5" x="334.16" y="276.05" width="9.9" height="50.3" transform="translate(-74.94 116.06) rotate(-17.52)"/><rect class="cls-3" x="306.84" y="290.49" width="10.3" height="36.6"/><rect class="cls-3" x="430.48" y="178.04" width="9.9" height="50.3"/><rect class="cls-3" x="420.23" y="191.65" width="10.3" height="36.6"/><rect class="cls-3" x="528.2" y="178.04" width="9.9" height="50.3"/><rect class="cls-5" x="545.29" y="177.24" width="9.9" height="50.3" transform="translate(-35.4 175.03) rotate(-17.52)"/><rect class="cls-3" x="517.96" y="191.65" width="10.3" height="36.6"/><path class="cls-4" d="M297.1,184.54l-1.1-14.9a1.64,1.64,0,0,1,1.49-1.79h8.81a1.71,1.71,0,0,1,1.7,1.72v.08l-1.1,14.9s9,5.8,8.9,10.6c-.1,3.7-2.3,21.4-3.3,29.2a4.32,4.32,0,0,1-4.3,3.8H295.8a4.32,4.32,0,0,1-4.3-3.8c-1-7.8-3.2-25.5-3.3-29.2C288.1,190.34,297.1,184.54,297.1,184.54Z"/><line class="cls-3" x1="958.1" y1="409.04" x2="0.9" y2="399.54"/></g><path class="cls-6" d="M605.2,264.44l-19.5,155.8a2.84,2.84,0,0,0,2.46,3.18l.34,0h0a2.8,2.8,0,0,0,2.8-2.4l22.3-152.7Z"/><path class="cls-6" d="M665.8,286.74l19.5,155.8a2.84,2.84,0,0,1-2.46,3.18l-.34,0h0a2.8,2.8,0,0,1-2.8-2.4l-22.3-152.7Z"/><path class="cls-6" d="M571.2,280.64,545,435.44a2.85,2.85,0,0,0,2.36,3.27,2,2,0,0,0,.34,0h0a2.8,2.8,0,0,0,2.9-2.3l28.9-151.6Z"/><path class="cls-6" d="M644.6,265.14,659,421.44a2.83,2.83,0,0,0,3.09,2.55l.31-.05h0a2.78,2.78,0,0,0,2.2-2.9L653.7,267Z"/><path class="cls-7" d="M686.3,126c-10.9-1.8-47,124.6-47,124.6H674s-17,20.3-17.6,22.2-6.8,27.6-6.8,27.6c41.5-13.2,32.3-49.9,32.3-49.9-8.9-27.5,3.5-62.7,8.8-91.8S686.3,126,686.3,126Z"/><path class="cls-7" d="M557.7,293.74s.9,13.7,36.6,15.7,81.7-1.5,87.7-42C682.1,267.44,564.9,282.34,557.7,293.74Z"/><path class="cls-8" d="M673.2,247.84c-9.7-35.4,27.8-114.5,13.2-121.9-15-7.5-72.6-4.4-88.1,9-14.5,12.6-21.1,106-21.9,117.8a4.87,4.87,0,0,0-.1,1.2c0,7-1,18.8-6.1,22.5-9.9,7.2-26.2,18.1,5,26.1,0,0,13.5,3.1,52,1.5,52.1-2.2,46.9-34.3,46.8-53.5A5.62,5.62,0,0,0,673.2,247.84Z"/><path class="cls-9" d="M534,427.44s4.4,21,5.4,22.7,8.5,5.4,18.7,2.4,10.5-6.8,10.5-6.8-2-24.1-2-26.8S532.3,411.44,534,427.44Z"/><path class="cls-10" d="M567.6,434.24c-.5-6.6-1.1-13.9-1.1-15.3,0-2.7-34.3-7.5-32.6,8.5,0,0,.7,3.2,1.5,7.2A58.73,58.73,0,0,0,567.6,434.24Z"/><path class="cls-11" d="M538.3,446.54s-1.2,1.9-1.2,11.8-15,32.3-14,38.4,43.2,7.6,47,3.1-.2-37.7.1-41.2,1.6-10.1-1.8-14.3c0,0-3.5,3.5-6.3,4.1s-5.4-5.1-10.9-6.1-9.1,5.5-9.7,6.1S538.5,448.24,538.3,446.54Z"/><path class="cls-12" d="M540.1,469.94s8.5-5.9,22,.8"/><path class="cls-12" d="M536.8,479.34s11.8-8.3,25.4,1.7"/><path class="cls-9" d="M642.7,438.84s6.8,19,10.5,22.4,13.6,3.7,20.4,0,6.5-9.3,6.5-9.3-5.9-31.1-7.2-31.9S642.7,429.74,642.7,438.84Z"/><path class="cls-10" d="M642.7,438.84s1.7,4.7,3.8,9.9c11.6,2,21.7-1.9,31.5-7.5-1.8-9.1-4.3-20.7-5.1-21.2C671.5,419.14,642.7,429.74,642.7,438.84Z"/><path class="cls-11" d="M650.1,455.94s-.9.3,1.7,8.7c1.3,4.5-13.1,27.6-12.8,33.3s12.3,6.7,21.8,7c14.5.4,24-2.5,24.8-11.8s-1.7-27.4-1.7-31.4-1.3-8.6-4.6-14c0,0,.3,7.5-2.7,8.9s-8.6-4-12.9-2.9-6.1,4.4-7.9,6.3S650.6,457,650.1,455.94Z"/><path class="cls-12" d="M654.5,475.34s7.8-7.8,21.5-1.8"/><path class="cls-12" d="M650.2,484.24s12.3-10.2,25.7-.8"/><path class="cls-11" d="M572.5,248.54s-45.9,25.3-58,48.5,6.8,97.1,6.5,112.7,1.7,17.9,10.4,21.2,27.6,2.6,35.5-3.3c10.2-7.6,5.5-21.5,3.2-38.3s-3.4-66.4-3.4-66.4,21.6-17.5,32.2-22.7a17.49,17.49,0,0,1,6.5-1.7,4.7,4.7,0,0,1,5,4.38,4.89,4.89,0,0,1-.18,1.62c-2.6,9.2-6.3,32.3-4.8,42.9,1.4,9.9,8.3,34.4,21.8,75.9,2.7,8.2,3.6,14.8,6.9,17.6,13.9,11.7,44.1-.8,47.3-11.7,1.3-4.5-2-19.8-6.3-36.5-6.1-23.9-14.3-50.7-13.7-53.6,1-4.9,13.9-49.9,10.5-70.1C663.7,220.14,625.8,239.84,572.5,248.54Z"/><ellipse class="cls-13" cx="528.9" cy="311.14" rx="15.1" ry="16.5"/><ellipse class="cls-14" cx="626.75" cy="347.61" rx="15.6" ry="16.6" transform="translate(-41.51 88.62) rotate(-7.83)"/><path class="cls-13" d="M566.7,322.94s-.6-6.2-2.5-9.5"/><path class="cls-13" d="M606.7,298.24s1.1-6.9-.7-8.9"/><path class="cls-13" d="M594.3,290.14s7.4-.6,23.4,0"/><path class="cls-15" d="M578.4,146.84s-5.8,2.1-14.8,15.7a171.63,171.63,0,0,1-16.5,21.3s-10.3-11.3-21.1-18.5-23.1-18.5-23.1-18.5-8.1-4.4-13.2,1.6-2.5,14.7-2.5,14.7,12.1,16.4,29.9,37.8c11.6,14,23.4,24,33.3,20.9,13.2-4.1,39.2-27.7,43.7-37.1S595.2,143.44,578.4,146.84Z"/><path class="cls-16" d="M547,183.84a33.09,33.09,0,0,1,5.3,9.9"/><path class="cls-9" d="M503.3,147.34s-8-6.6-13.7-6c-7.4.8-7.3-.9-12,.1-2.2.5-6.2,2.1-10.4,7.3a64.89,64.89,0,0,0-5.7,7.9s-4.4-9.4-7.1-7.9,3.7,15.9,5.9,17.4,8.7-1.1,11,0,8.5-.9,8.5-.9l8.5-2.1,2.2,2.4a2.64,2.64,0,0,0,2.8.7,14.08,14.08,0,0,0,7.6-7.4C504.4,151.54,503.3,147.34,503.3,147.34Z"/><path class="cls-17" d="M461.5,156.64s-4.4-9.4-7.1-7.9,3.7,15.9,5.9,17.4,8.7-1.1,11,0"/><path class="cls-9" d="M493,153.74s-2.9,7.6-6.5,12.5-9,5.1-11.4,3.5.8-12.6,1.5-15.3,2.9-5.2,4.3-2.2c1.1,2.3-.5,7.8-.2,12.2"/><path class="cls-9" d="M476.4,168.84s-3.1,1.9-4.9,1.3-2.9-1.9-3.2-4.6.7-10.8.6-12.9,3.2-3.8,4.6,1,.7,9,1.6,10"/><path class="cls-9" d="M469.6,167.44a14,14,0,0,1-4.7,1.4c-2.4.2-3.5-1.4-4.3-6.3-.9-5.9-1.6-11.9.5-12.2s3.2,2.9,4,6.2,1.3,5.4,1.8,5.5"/><path class="cls-9" d="M478.6,141.34s-5.7.4-7.8.4-7.6-1.4-8.8.3,2.2,4.8,8.3,5.6S482.3,143.64,478.6,141.34Z"/><path class="cls-16" d="M493,170.84s7.9,2.6,13.4-5.3c4.9-7,3-13,3-13"/><path class="cls-16" d="M534.4,217.84s-1.9-2.3,3-3.7,24-2.2,21.7,3.3"/><path class="cls-17" d="M493,153.74s-2.9,7.6-6.5,12.5-9,5.1-11.4,3.5.8-12.6,1.5-15.3,2.9-5.2,4.3-2.2c1.1,2.3-.5,7.8-.2,12.2"/><path class="cls-17" d="M474.5,169.74a4.58,4.58,0,0,1-3,.4c-1.8-.6-2.9-1.9-3.2-4.6s.7-10.8.6-12.9,3.2-3.8,4.6,1c1,3.6.9,6.7,1.2,8.6"/><path class="cls-17" d="M468.8,167.74a11.46,11.46,0,0,1-3.9,1c-2.4.2-3.5-1.4-4.3-6.3-.9-5.9-1.6-11.9.5-12.2s3.2,2.9,4,6.2,1.3,5.4,1.8,5.5"/><path class="cls-17" d="M468.5,147.44a33.18,33.18,0,0,1,5.6-4.5"/><path class="cls-11" d="M589.4,93.54a24.42,24.42,0,0,1,.3-5.4c.8-4.2,2.9-13,6.4-15.9,5.2-4.3,8,2.1,8,2.1s3.6-4.7,7-4.2,5.2,4.5,5.2,4.5,5.5-4.5,8.8-2.3a10.34,10.34,0,0,1,4.2,5.6s3.5-4,7.2-2.4,4.4,11.1,4.4,11.1,3.7,2.1,4.5,9.4c.9,7.8-2.9,19.3-10.7,32.5,0,0-16.1-29-26.3-33.1s-10.1,3.5-13.3,3.7C592.3,99.24,589.9,98.94,589.4,93.54Z"/><path class="cls-15" d="M591.4,147.64s-12.5,1.5,2.1-11.7c12.6-11.4,54.6-8.2,60,1.6,4,7.3,9.1,26.8-7.9,38.5S599,175.34,591.4,147.64Z"/><path class="cls-7" d="M615.4,143.94s11.7-.5,21.5-.9,24.1-.2,32,10.6c9.1,12.3-4.6,54.7-6.6,65.5s5.7,23.8,5.3,32.7c-.2,5.1-6.6,18.5-35,21-32.1,2.9-60.4-3.7-63.5-22.2-2.1-12.4,6.1-21.1,3.3-41.3-1.5-10.6-3.4-44.9.2-54.6S582.2,141.84,615.4,143.94Z"/><path class="cls-9" d="M603.4,134.14s-1.4,11.1-2,14,1,11.1,12.6,11c12.5-.1,20.3-10.1,20.6-14.1s-.7-23.3,1-29.7-14.3-2.7-21.2,1.3S602.7,130.84,603.4,134.14Z"/><path class="cls-10" d="M624.1,133.24c-6.5,1.5-14.5,7.1-21.4,6-.2,1.7-.5,3.5-.7,5.1C611.2,145.84,619.9,140,624.1,133.24Z"/><path class="cls-15" d="M602.4,141.64s-1.6,11.5,8.1,17.2c0,0,11.2-1,19.4-9a15.94,15.94,0,0,0,4.7-11.5v-.9s15.7.2,20.2,4.9c8.6,9-26.7,23.3-45.9,26.3,0,0-17.8-9.9-22-20S601,142,602.4,141.64Z"/><path class="cls-16" d="M605.6,162.34a133.08,133.08,0,0,0-5.8,29.3"/><path class="cls-15" d="M602.1,192.84c.1-1.3-.6-5.3-1.9-5.4s-2.8,3.7-2.9,5a2.44,2.44,0,0,0,2.2,2.6,2.3,2.3,0,0,0,2.58-2A1.36,1.36,0,0,0,602.1,192.84Z"/><path class="cls-16" d="M617.3,162.64a130.93,130.93,0,0,0,1.1,29.8"/><path class="cls-15" d="M621,193.24c-.2-1.3-1.8-5-3.1-4.8s-1.9,4.2-1.7,5.5A2.48,2.48,0,0,0,619,196,2.53,2.53,0,0,0,621,193.24Z"/><path class="cls-15" d="M580.8,238.24a43.05,43.05,0,0,0,6.1-17.1,3.57,3.57,0,0,1,3.9-3.2c7.4.8,23.9,2.3,36.3,1.2a3.6,3.6,0,0,1,3.9,3.26v0c.4,4.3,2.3,11.6,9.7,18.7a3.09,3.09,0,0,1,1.1,2,69.64,69.64,0,0,1,1.3,14.9c-.4,6.9-46.8,11.6-62.8-2.6a3.76,3.76,0,0,1-1.2-2.8c.1-2.7.5-8.3,1.2-12.9A4.22,4.22,0,0,1,580.8,238.24Z"/><path class="cls-9" d="M590.3,98.24s-.2,9.8-1.1,18.2,0,19.6,13.5,23.1,26.6-6.7,31.5-20.1,5.1-31.5-12.1-38.6S591.1,82.64,590.3,98.24Z"/><path class="cls-11" d="M640.6,106.84c-1.3,6.3-2.2,9.7-2.2,9.7l-4.2-4.4s-7.2-1-8.2-13.9a6.35,6.35,0,0,0-3.4-5.2c-5.9-3.1-9,1.5-20.5.7-3.9-.3-9.9-.9-9.7-6.9.5-15.6,24.6-14.4,36-7.3S641.9,100.64,640.6,106.84Z"/><path class="cls-9" d="M629.4,113s2.6-5.9,6.9-5.3c4.6.6,5,14.4-6.9,15.2"/><path class="cls-11" d="M596.6,105.34a18.74,18.74,0,0,1,.1,4.1,14,14,0,0,1-.8,4.1c-.1.3-.3.7-.4,1s-.2.5-.3.8a1.88,1.88,0,0,0,.1,1.3,5.1,5.1,0,0,0,2.9,2.1,4.11,4.11,0,0,1-2.2,0,3.7,3.7,0,0,1-2-1.3,2.73,2.73,0,0,1-.6-1.2,2.85,2.85,0,0,1,0-1.3,6.3,6.3,0,0,1,.4-1.1,6,6,0,0,1,.4-.8C595.2,110.54,595.7,107.94,596.6,105.34Z"/><path class="cls-16" d="M602.2,126.94s.7-1.5,2.4-.2,2.4.8,3.3-.3,1.3,1,3.3.2"/><path class="cls-11" d="M610.8,102.84a2.68,2.68,0,0,1,1.18-3.6l.22-.1c2-.9,5.3.6,7.2,2.6s.9,3-1.4,2-3.3-1.2-5.3-.5A1.57,1.57,0,0,1,610.8,102.84Z"/><path class="cls-11" d="M596.6,101.84a2.66,2.66,0,0,0-.7-3.4c-1.4-1-3.7,0-4.9,1.6-1.1,1.4-.6,2.2.9,1.8s2.1-.6,3.4.2A1,1,0,0,0,596.6,101.84Z"/><path class="cls-11" d="M636.6,113.24a3.1,3.1,0,0,0-1.1-.4.45.45,0,0,0-.5.3,4.8,4.8,0,0,0-.4,1.9,6.37,6.37,0,0,1-.7,2.7,2,2,0,0,1-1.3.9,1.66,1.66,0,0,1-.7.1c-.2,0-.5-.1-.7-.1.8-.5,1.4-1,1.4-1.5s.1-1.3.2-2.2a3.9,3.9,0,0,1,1.2-2.7,1.52,1.52,0,0,1,.9-.4,2.15,2.15,0,0,1,.9.2A2.79,2.79,0,0,1,636.6,113.24Z"/><path class="cls-11" d="M594,110.54h0a1.4,1.4,0,0,0,1.59-1.18s0-.08,0-.12l.1-.9a1.41,1.41,0,0,0-1.18-1.59h-.12a1.4,1.4,0,0,0-1.59,1.18s0,.08,0,.12l-.1.9a1.38,1.38,0,0,0,1.14,1.58Z"/><path class="cls-11" d="M611.9,112.24h0a1.4,1.4,0,0,0,1.59-1.18s0-.08,0-.12l.1-.9a1.41,1.41,0,0,0-1.18-1.59h-.12a1.4,1.4,0,0,0-1.59,1.18s0,.08,0,.12l-.1.9A1.52,1.52,0,0,0,611.9,112.24Z"/><path class="cls-15" d="M663.5,151.34a8.66,8.66,0,0,1,6.2,2.5c2,1.9,6.2,5.9,14.4,13.6,13.2,12.5,15,14.9,15,14.9s11.6,9.1,12.8,20.4-6.4,26.5-26.2,13.8-29.4-21.2-33.4-29.8C648.7,179,650.8,151.64,663.5,151.34Z"/><path class="cls-15" d="M693.2,193.24a69.47,69.47,0,0,1,14.9-20.3c10.4-9.9,22.7-22.1,25-24.5s7.9-7.9,15.5-2,3.2,16.2,3.2,16.2-13.3,21.4-24.3,39.6-22.2,24.2-36.4,17.3S693.2,193.24,693.2,193.24Z"/><path class="cls-9" d="M733.1,149.94s5.7-7.7,8-10.4,6.5-6.8,12-5.2,8.4-1.8,12.6,2.6,7.1,12.5,9.8,15.5,2,3.8,6.3,3.7,7.8.9,6,3.3-13.5,3-15.1,2.8-9.1.8-11-.1-1.6-.1-3.2-1-5.7-2.9-5.7-2.9a21.25,21.25,0,0,1-3,4.4c-1.7,1.8-9.1,1.5-13.9-4.1C731.8,153.74,733.1,149.94,733.1,149.94Z"/><path class="cls-17" d="M775.5,152.54c2.7,3,2,3.8,6.3,3.7s7.8.9,6,3.3-13.5,3-15.1,2.8"/><path class="cls-9" d="M758.9,159c.2-5.3,1.9-9.5,3.5-8.9s2.5,11.9-1.3,14.5-14-11.4-16-12.3"/><path class="cls-9" d="M760.6,163.74s2.1,4.1,5.2,2.1,6.2-11.2,6.8-13.2-3.2-2.8-5.7,2.1-4.3,5.6-4.3,5.6"/><path class="cls-9" d="M766.6,164.14a4,4,0,0,0,4.5,1.8c3.1-.8,7.1-7,9-9s-.5-4.6-3.8-2.2-5.7,4.7-7.3,5.2"/><path class="cls-9" d="M764.3,135.84s2.4,1.2,5.5,5.4,9.1,4.8,9.8,7-5.6,3.1-10.6.7S762.1,136.34,764.3,135.84Z"/><path class="cls-16" d="M726.8,154.74a13.47,13.47,0,0,0,4.7,12.3,14.65,14.65,0,0,0,15.6,3"/><path class="cls-16" d="M691,219.44s-2.3-3.4,5.3-5.1,20.5-2.6,19.2,2.6"/><path class="cls-17" d="M758.9,159c.2-5.3,1.9-9.5,3.5-8.9s2.5,11.9-1.3,14.5-14-11.4-16-12.3"/><path class="cls-17" d="M765.8,165.84c3.1-1.9,6.2-11.2,6.8-13.2s-3.2-2.8-5.7,2.1a17.23,17.23,0,0,1-3.4,5"/><path class="cls-17" d="M767.4,165a3.81,3.81,0,0,0,3.7.8c3.1-.8,7.1-7,9-9s-.5-4.6-3.8-2.2c-2.6,1.8-4.6,3.7-6.1,4.6"/><path class="cls-17" d="M774,150.34s-2.7-4.6-3.7-5.9"/><path class="cls-16" d="M699.6,182.64s-5.6,6.5-6.8,14.3"/><path class="cls-15" d="M393.2,211.84H358.6a3.31,3.31,0,0,1-3-2.4l-5-20.7a1.86,1.86,0,0,1,1.23-2.32,1.93,1.93,0,0,1,.67-.08h34.6a3.31,3.31,0,0,1,3,2.4l5,20.7a1.86,1.86,0,0,1-1.23,2.32A1.71,1.71,0,0,1,393.2,211.84Z"/><path class="cls-16" d="M351.1,186.84l19.6,11a3.31,3.31,0,0,0,3.8,0l14.3-11"/><path class="cls-18" d="M867.4,213.74,788.6,209a2.89,2.89,0,0,1-2.74-3,2.76,2.76,0,0,1,.14-.75l22-69.9a4.86,4.86,0,0,1,4.1-3.3l82.2-6a2.9,2.9,0,0,1,3.14,2.64,3,3,0,0,1-.14,1.16l-25.2,80.6A4.52,4.52,0,0,1,867.4,213.74Z"/><path class="cls-11" d="M864.5,211.94l-78.8-4.7a2.89,2.89,0,0,1-2.74-3.05,2.76,2.76,0,0,1,.14-.75l22-69.9a4.86,4.86,0,0,1,4.1-3.3l82.2-6a2.9,2.9,0,0,1,3.14,2.64,3,3,0,0,1-.14,1.16l-25.2,80.6A4.52,4.52,0,0,1,864.5,211.94Z"/><path class="cls-7" d="M824.1,143.74l-13.9.7a.7.7,0,0,1-.73-.67.91.91,0,0,1,0-.23l1-3.2a1.19,1.19,0,0,1,1.1-.8l14-.8a.7.7,0,0,1,.73.67.85.85,0,0,1,0,.23l-1.1,3.3A1.54,1.54,0,0,1,824.1,143.74Z"/><path class="cls-7" d="M795.1,198h0a2.18,2.18,0,0,1-2.08-2.29,1.81,1.81,0,0,1,.08-.51l6.6-20.8a2.13,2.13,0,0,1,2-1.5h0a2.12,2.12,0,0,1,2.12,2.11,2,2,0,0,1-.12.69l-6.6,20.8A1.8,1.8,0,0,1,795.1,198Z"/><path class="cls-18" d="M805,198.44h0a2.18,2.18,0,0,1-2.12-2.24,2.14,2.14,0,0,1,.12-.66l10.6-33.7a2.38,2.38,0,0,1,2.1-1.6h0a2.29,2.29,0,0,1,2.29,2.28,2.16,2.16,0,0,1-.09.62l-10.6,33.7A2.22,2.22,0,0,1,805,198.44Z"/><path class="cls-7" d="M815.2,198.94h0a2.34,2.34,0,0,1-2.19-2.48,2.36,2.36,0,0,1,.09-.52l4.4-13.9a2.24,2.24,0,0,1,2.2-1.6h0a2.37,2.37,0,0,1,2.29,2.43,2.71,2.71,0,0,1-.09.57l-4.4,13.9A2.37,2.37,0,0,1,815.2,198.94Z"/><path class="cls-15" d="M825.8,199.34h0a2.42,2.42,0,0,1-2.29-2.56,2.54,2.54,0,0,1,.09-.54l12.5-39.8a2.47,2.47,0,0,1,2.2-1.7h0a2.38,2.38,0,0,1,2.3,3.1l-12.5,39.8A2.22,2.22,0,0,1,825.8,199.34Z"/><path class="cls-18" d="M836.7,199.84h0a2.58,2.58,0,0,1-2.37-2.77,3,3,0,0,1,.07-.43l8.2-26.2a2.46,2.46,0,0,1,2.3-1.7h0a2.48,2.48,0,0,1,2.51,2.43,2.52,2.52,0,0,1-.11.77l-8.2,26.2A2.49,2.49,0,0,1,836.7,199.84Z"/><path class="cls-19" d="M848.1,200.34h0a2.51,2.51,0,0,1-2.42-2.61,2.63,2.63,0,0,1,.12-.69l1.7-5.6a2.57,2.57,0,0,1,2.5-1.8h0a2.55,2.55,0,0,1,2.51,2.59,2.45,2.45,0,0,1-.11.71l-1.7,5.6A2.81,2.81,0,0,1,848.1,200.34Z"/><path class="cls-7" d="M859.8,200.84h0a2.67,2.67,0,0,1-2.5-2.83,2.84,2.84,0,0,1,.1-.57l8.5-27a2.67,2.67,0,0,1,2.5-1.9h0a2.67,2.67,0,0,1,2.7,2.64,2.78,2.78,0,0,1-.1.76l-8.5,27A2.78,2.78,0,0,1,859.8,200.84Z"/><path class="cls-18" d="M871,138.74c.2-.7-.1-1.3-.6-1.3s-1.2.6-1.5,1.4.1,1.3.6,1.3A2.08,2.08,0,0,0,871,138.74Z"/><path class="cls-18" d="M876.2,138.44c.2-.7-.1-1.3-.7-1.3a1.93,1.93,0,0,0-1.5,1.4c-.2.7.1,1.3.7,1.3A2.08,2.08,0,0,0,876.2,138.44Z"/><path class="cls-18" d="M881.5,138.14c.2-.7-.1-1.3-.7-1.3a1.93,1.93,0,0,0-1.5,1.4c-.2.7.1,1.3.7,1.3A1.92,1.92,0,0,0,881.5,138.14Z"/><path class="cls-20" d="M570.2,62.14s-7.2.3-9-6.3,5-9.6,5-3.4-9.7,8.9-13.7,3.7.7-9.2,2-6.2-1.8,9.3-7.5,7.4"/><path class="cls-20" d="M656.2,72.44s12.3-.7,11.5-9.6-8.8,7.6,1.9,7.4,10.1-10.3,6.9-11-2.4,7.1,3.5,6.6,6.8-4.1,6.8-4.1"/><path class="cls-15" d="M615.6,55.14a3.4,3.4,0,1,0-3.4,3.4h0a3.37,3.37,0,0,0,3.4-3.34Z"/><path class="cls-7" d="M632,18.24a19.93,19.93,0,0,1-5.2,14.9,22.18,22.18,0,0,0-5.9,15.1v3.5a3.54,3.54,0,0,1-3.5,3.5H607.2a3.54,3.54,0,0,1-3.5-3.5v-3.5a21.81,21.81,0,0,0-5.9-15,19.78,19.78,0,1,1,34.2-15Z"/><line class="cls-16" x1="603.6" y1="48.24" x2="620.8" y2="48.24"/><line class="cls-16" x1="603.6" y1="51.64" x2="620.8" y2="51.64"/><path class="cls-16" d="M610.4,48.24V20.84a3.15,3.15,0,0,0-4.9-2.6h0a3.17,3.17,0,0,0-.74,4.41,3.42,3.42,0,0,0,.44.49l1.2,1.1"/><path class="cls-16" d="M614,48.24V20.84a3.15,3.15,0,0,1,4.9-2.6h0a3.17,3.17,0,0,1,.74,4.41,3.42,3.42,0,0,1-.44.49l-1.2,1.1"/><path class="cls-18" d="M532,123.74l-8.8-80.6a5.42,5.42,0,0,0-4.6-4.7L404.5,23.54a4.06,4.06,0,0,0-4.5,3.57,3.62,3.62,0,0,0,0,.93l11.2,96.1a5.31,5.31,0,0,0,5.3,4.7l111.4-.6a4,4,0,0,0,4.13-3.87A3.33,3.33,0,0,0,532,123.74Z"/><path class="cls-11" d="M537.1,123.34l-8.8-81.2a5.31,5.31,0,0,0-4.6-4.7l-114.9-15a4.13,4.13,0,0,0-4.59,3.61,3.79,3.79,0,0,0,0,.89l11.3,96.8a5.31,5.31,0,0,0,5.3,4.7l112.3-.6a4.08,4.08,0,0,0,4-4.14C537.12,123.58,537.11,123.46,537.1,123.34Z"/><path class="cls-7" d="M522.6,115.34H431.2l-.3-3,19.3-27.2a8.57,8.57,0,0,1,10.4-3l8.8,3.6a8.7,8.7,0,0,0,10.7-3.5l3.9-6.4a8.66,8.66,0,0,1,10.5-3.6,8.59,8.59,0,0,0,10-2.8l12-15.7Z"/><line class="cls-20" x1="430.9" y1="112.34" x2="424" y2="52.54"/><path class="cls-20" d="M430.6,109.64l15.7-41a8.14,8.14,0,0,1,10.49-4.78l.21.08,8.1,3.2a8.37,8.37,0,0,0,9.4-2.4l5.4-6.6a8.12,8.12,0,0,1,11.43-1.21l.37.31h0a8.12,8.12,0,0,0,9.9.8l14.6-9.3"/><path class="cls-15" d="M423.3,44.64l-.6-4.8a1.17,1.17,0,0,1,1-1.3h.3l21.7,2.3A1.49,1.49,0,0,1,447,42l.7,4.4a.86.86,0,0,1-.69,1,.81.81,0,0,1-.31,0l-22.1-1.6a1.23,1.23,0,0,1-1.3-1.16Z"/><path class="cls-21" d="M777.2,91c-23.1,22.4-51.8,26.8-62.2,11.4-9.2-13.6-.5-37.8,18.3-55.3,18.5-17.2,42.9-24.3,56.1-15.2C804.3,42.14,799.9,69,777.2,91Z"/><path class="cls-7" d="M773.9,87.64c-23.1,22.4-51.8,26.8-62.2,11.4-9.2-13.6-.5-37.8,18.3-55.3,18.5-17.2,42.9-24.3,56.1-15.2C801.1,38.84,796.6,65.74,773.9,87.64Z"/><path class="cls-15" d="M764.2,77.94c-13.9,13.3-31.3,16.6-38.3,7.7-6.4-8.2-1.3-23.7,10.9-35.1s27.8-15.6,35.9-9.2C781.4,48.14,777.9,64.74,764.2,77.94Z"/><path class="cls-19" d="M755.3,69c-5.5,5.2-12.5,6.7-15.5,3.4s-1-9.7,4.2-14.6,11.9-6.5,15.1-3.6S760.8,63.84,755.3,69Z"/><path class="cls-11" d="M719.8,35.44h0a5.23,5.23,0,0,1-7.38-.27l0,0-17.8-22.7a2.91,2.91,0,0,1,.3-3.9h0a2.91,2.91,0,0,1,3.9,0L720,28a5.05,5.05,0,0,1,.07,7.14A3.31,3.31,0,0,1,719.8,35.44Z"/><path class="cls-15" d="M698.7,16.74l-5.7.8a1.84,1.84,0,0,0-1.62,2,1.81,1.81,0,0,0,.62,1.18h0a25.17,25.17,0,0,0,12.4,5.9l2.9.5a.39.39,0,0,0,.46-.31.38.38,0,0,0-.06-.29l-7.2-9.1A2.11,2.11,0,0,0,698.7,16.74Z"/><path class="cls-15" d="M702.9,12.94l1.3-5.6A1.85,1.85,0,0,1,706.43,6a1.8,1.8,0,0,1,1.07.69h0a24.67,24.67,0,0,1,4.9,12.8l.2,2.9c0,.3-.4.5-.6.3l-8.5-7.8A1.87,1.87,0,0,1,702.9,12.94Z"/><line class="cls-16" x1="719" y1="34.54" x2="724.7" y2="40.64"/><path class="cls-15" d="M839.1,87.14V72.54a1.32,1.32,0,0,0-1.3-1.3h-6.6a1.32,1.32,0,0,0-1.3,1.3v14.6h-3.8a1.25,1.25,0,0,0-1.27,1.25A1.15,1.15,0,0,0,825,89l8.3,13.1a1.22,1.22,0,0,0,1.67.43,1.11,1.11,0,0,0,.43-.43L843.7,89a1.26,1.26,0,0,0-.45-1.72,1.22,1.22,0,0,0-.65-.18Z"/><path class="cls-11" d="M868.1,102.94V88.34a1.32,1.32,0,0,0-1.3-1.3h-6.6a1.32,1.32,0,0,0-1.3,1.3v14.6h-3.8a1.25,1.25,0,0,0-1.27,1.25,1.15,1.15,0,0,0,.17.65l8.3,13.1a1.22,1.22,0,0,0,1.67.43,1.11,1.11,0,0,0,.43-.43l8.3-13.1a1.26,1.26,0,0,0-.45-1.72,1.22,1.22,0,0,0-.65-.18Z"/><path class="cls-11" d="M390.4,160.54a3.46,3.46,0,1,0-4.21,2.5h0a3.44,3.44,0,0,0,4.19-2.45Z"/><path class="cls-15" d="M394.6,152.34l.2-.9a5.51,5.51,0,0,0-3.9-6.7h0a5.51,5.51,0,0,0-6.7,3.9l-.2.9a7.19,7.19,0,0,1-1.5,2.7c-.6.6-1.2,1.3-1.8,1.9a2.58,2.58,0,0,0,.2,3.64,2.61,2.61,0,0,0,1,.56l5,1.3,5,1.3a2.52,2.52,0,0,0,3.08-1.79,2.61,2.61,0,0,0,0-1.21c-.2-.9-.4-1.8-.6-2.6A7.79,7.79,0,0,1,394.6,152.34Z"/><path class="cls-7" d="M297.7,115.84s37.4-8.5,36.8-28.3L391.7,92s-.7,24.3-38,36.7C353.6,128.74,313.9,123.44,297.7,115.84Z"/><line class="cls-16" x1="345.6" y1="114.94" x2="355.7" y2="116.34"/><line class="cls-16" x1="349.8" y1="110.94" x2="361.5" y2="112.54"/><path class="cls-16" d="M339.8,101.34s25.8,3.6,30.4,4.2"/><path class="cls-11" d="M344.4,107.54a25,25,0,0,1-10.6,8.6,2,2,0,0,1-.8.1c-3.9-.8-7.9-1.7-11.7-2.7a.58.58,0,0,1-.44-.69.59.59,0,0,1,.34-.41,45.32,45.32,0,0,0,11.7-7.2,1,1,0,0,1,1-.3c2.1.4,5.7.9,10.1,1.6C344.4,106.74,344.7,107.24,344.4,107.54Z"/><path class="cls-15" d="M361.4,96.14a18.18,18.18,0,0,1-.8,2.7.76.76,0,0,1-.9.5l-19.5-2.1a.86.86,0,0,1-.77-.94.77.77,0,0,1,.07-.26,8,8,0,0,0,.6-2.2,1,1,0,0,1,.9-.7l19.6,1.8C361.1,95.24,361.5,95.64,361.4,96.14Z"/><path class="cls-21" d="M700.9,126.44c-3.9,8.5-13.3,14.1-19.7,12.4-5.6-1.5-6.7-8.2-3.1-14.8,3.4-6.4,10.5-11.4,16.5-11.6C701.3,112.34,704.6,118.44,700.9,126.44Z"/><path class="cls-7" d="M698.9,124.74c-3.9,8.5-13.3,14.1-19.7,12.4-5.6-1.5-6.7-8.2-3.1-14.8,3.4-6.4,10.5-11.4,16.5-11.6C699.4,110.54,702.6,116.64,698.9,124.74Z"/><path class="cls-21" d="M695.7,124.44c-3,6.3-9.9,10.6-14.8,9.5-4.4-1-5.4-6.1-2.6-11.4,2.7-5,8.3-9,12.9-9C696.3,113.54,698.6,118.34,695.7,124.44Z"/><path class="cls-7" d="M682.4,129.84l.4-.7c.1-.3.1-.5-.1-.6a2.29,2.29,0,0,1-1.1-.7c-.1-.1-.1-.4.1-.7l.1-.1c.2-.3.6-.4.7-.2a2.48,2.48,0,0,0,3.51,0,2.45,2.45,0,0,0,.49-.7A1.56,1.56,0,0,0,686,124l-.11-.06c-1.1-.8-1.6-1.7-.8-3.1a4.73,4.73,0,0,1,3.1-2.4.74.74,0,0,0,.6-.5l.4-.7a.86.86,0,0,1,.7-.5h0c.2,0,.3.2.2.5l-.3.6c-.1.3-.1.5.2.5a3.09,3.09,0,0,1,1,.4c.2.1.1.4-.1.7l-.1.1a.71.71,0,0,1-.8.3,2.32,2.32,0,0,0-1.3-.4,2.18,2.18,0,0,0-2.2,1.3c-.4.8-.1,1.3.8,2a2.32,2.32,0,0,1,.85,3.17,1.14,1.14,0,0,1-.15.23,4.57,4.57,0,0,1-3.4,2.6.74.74,0,0,0-.6.5l-.4.8a1,1,0,0,1-.7.5h0C682.3,130.34,682.2,130.14,682.4,129.84Z"/><polygon class="cls-15" points="379.1 272.84 369.3 272.84 368.8 290.64 378.2 290.64 379.1 272.84"/><path class="cls-6" d="M368.8,290.64l-5.9,179.2a3.24,3.24,0,0,0,3.05,3.4h.25a3.28,3.28,0,0,0,3.3-3.1l8.7-179.5Z"/><polygon class="cls-15" points="865.4 272.84 855.7 272.84 856.5 290.64 866 290.64 865.4 272.84"/><path class="cls-6" d="M856.5,290.64l8.7,179.5a3.3,3.3,0,1,0,6.6-.3l-5.9-179.2Z"/><path class="cls-6" d="M405.2,248.54,399.7,417a2.76,2.76,0,0,0,2.62,2.9h.18a2.78,2.78,0,0,0,2.8-2.7l8.2-168.7Z"/><path class="cls-6" d="M829.5,248.54,835,417a2.76,2.76,0,0,1-2.62,2.9h-.18a2.78,2.78,0,0,1-2.8-2.7l-8.2-168.7Z"/><polygon class="cls-8" points="893.1 269.04 341.6 269.04 399.4 241.54 835.4 241.54 893.1 269.04"/><rect class="cls-6" x="341.6" y="269.04" width="551.5" height="7.5"/><path class="cls-15" d="M793.6,242.44s-4.7-2.3-6.3-6.9,1.2-7.7,2.4-7.4,3,6.1,4.5,6.1,1.2-10.2,4.2-11.3,2.7,10.1,2.8,11c.2,2.3,4.1-2.7,5.5-4.7,1.7-2.5,7.2,6.5-4.3,13.2A25,25,0,0,1,793.6,242.44Z"/><path class="cls-11" d="M813,243.54v.4a52,52,0,0,1-3.4,17.4h0a2.62,2.62,0,0,1-2.3,1.6h-18a2.46,2.46,0,0,1-2.3-1.6h0a51.56,51.56,0,0,1-3.4-17.4v-.4a1.84,1.84,0,0,1,1.78-1.9H811.1a1.78,1.78,0,0,1,1.9,1.65A1,1,0,0,1,813,243.54Z"/><path class="cls-11" d="M745.4,236.14c-7.8.8-9.8,21.9-24.6,24,0,0-2.7.1-7.1.2-12.7.4-38.9,1-49.5.1a39.33,39.33,0,0,0,4.6-.3c4.6-.6,7.9-3.1,10.6-6.1,6-7,8.7-17.3,14-17.8h52Z"/><path class="cls-15" d="M679.3,254a16.6,16.6,0,0,1-10.6,6.1,39.33,39.33,0,0,1-4.6.3c-11.2,0-14.5-6.2-14.5-6.2S667.5,255,679.3,254Z"/><path class="cls-11" d="M603.7,262.54H531.1v-5.4h78a5.38,5.38,0,0,1-5.36,5.4Z"/><path class="cls-11" d="M546.7,262.54H434.8a8,8,0,0,1-7.7-6l-18.4-73.3a4.36,4.36,0,0,1,3.19-5.27,4.3,4.3,0,0,1,1-.13H524.8a8,8,0,0,1,7.7,6l18.4,73.3a4.31,4.31,0,0,1-3.08,5.26A4.25,4.25,0,0,1,546.7,262.54Z"/><ellipse class="cls-18" cx="473.28" cy="220.15" rx="7.3" ry="9.7" transform="translate(-3.56 432.49) rotate(-48.95)"/><path class="cls-11" d="M609.8,251.74H586.1a2.11,2.11,0,0,1-2.1-2.1h0a10.94,10.94,0,0,1,10.9-10.9h6a10.94,10.94,0,0,1,10.9,10.9h0a2,2,0,0,1-1.9,2.1Z"/><path class="cls-22" d="M754.2,254.14c-2.2-.4-5.8-1.5-7-5.5s7.9-12.7,10.7-12.7,7.9,2.8,10.6,6.6-2.3,6.2-1.7,8S761.8,255.64,754.2,254.14Z"/><path class="cls-22" d="M747.2,248.64s4.7,3.4,6.9,2.4,3.9-3.8,7.8-3.4,3.1-6.4,0-7.5-5.3,5.9-7.8,6-3.1-1.5-.8-3.3"/><path class="cls-22" d="M742.5,260.34s2.5-2.9,1.4-4.5-2-2.1-2.5-3c-.7-1.4-.6-4.4-2.2-5.9s-4.2.9-10.2.1c-4.6-.6-8.8,6.5-7.2,8.5a9.67,9.67,0,0,0,2.2,2.4s-.9,1.8-.4,2.9,4,2.7,9.3,3.2S742.5,260.34,742.5,260.34Z"/><path class="cls-22" d="M724,258s4.8,3.7,8.2,2.9,6.7-7,6.5-8.7-1.6-2.5-5,.6-6,2.3-5.7-.4"/></g></g></svg>