<svg id="illustration" xmlns="http://www.w3.org/2000/svg" xmlns:xlink="http://www.w3.org/1999/xlink" viewBox="0 0 1024 768"><defs><style>.cls-1,.cls-12,.cls-13,.cls-14,.cls-16,.cls-17,.cls-20,.cls-3,.cls-5{fill:none;}.cls-2{clip-path:url(#clip-path);}.cls-3,.cls-5{stroke:#b8d8c7;}.cls-12,.cls-13,.cls-14,.cls-16,.cls-17,.cls-20,.cls-22,.cls-3,.cls-5{stroke-linecap:round;stroke-linejoin:round;}.cls-12,.cls-13,.cls-16,.cls-17,.cls-20,.cls-22,.cls-3{stroke-width:1.8px;}.cls-4{fill:#b8d8c7;}.cls-5{stroke-width:1.8px;}.cls-6{fill:#b0d7c0;}.cls-7{fill:#ffe779;}.cls-22,.cls-8{fill:#fff;}.cls-9{fill:#b28d93;}.cls-10{fill:#896068;}.cls-11{fill:#22272e;}.cls-12{stroke:#fff;}.cls-13,.cls-14{stroke:#63737a;}.cls-14{stroke-width:1.8px;}.cls-15{fill:#6dafa7;}.cls-16{stroke:#22272e;}.cls-17{stroke:#89555f;}.cls-18{fill:#63737a;}.cls-19{fill:#f4c2c9;}.cls-20{stroke:#6dafa7;}.cls-21{fill:#f8ab5d;}.cls-22{stroke:#b0d7c0;}</style><clipPath id="clip-path"><path class="cls-1" d="M766.3,565.6l-520-14.9a48.07,48.07,0,0,1-46.5-43.3l-25.1-248a48.17,48.17,0,0,1,43.11-52.76c1.36-.14,2.72-.22,4.09-.24l578.8-8a48.19,48.19,0,0,1,48.5,54.1L815.5,523.4A48.28,48.28,0,0,1,766.3,565.6Z"/></clipPath></defs><title>dash Day Night</title><g class="cls-2"><path class="cls-3" d="M619.3,691.9h415.5a15,15,0,0,0,15-15V441.2a15,15,0,0,0-15-15H619.3a15,15,0,0,0-15,15V676.8A15.07,15.07,0,0,0,619.3,691.9Z"/><path class="cls-3" d="M114.7,629.3H533.8a15,15,0,0,0,15-15V270a15,15,0,0,0-15-15H114.7a15,15,0,0,0-15,15h0V614.3A15,15,0,0,0,114.7,629.3Z"/><path class="cls-3" d="M277.8,359.9h20.3a4.32,4.32,0,0,0,4.3-3.8l1.6-14.4a4.33,4.33,0,0,0-3.83-4.77,3.71,3.71,0,0,0-.47,0H276.2a4.34,4.34,0,0,0-4.32,4.36,3.31,3.31,0,0,0,0,.44l1.6,14.4A4.49,4.49,0,0,0,277.8,359.9Z"/><path class="cls-4" d="M290.4,336.9s8-.8,9.6-11.6c0,0-7.2,2.1-9.5,7.2,0,0-1-11.4-6.4-12.5,0,0-2.4,8.5,1.4,12.7,0,0-2.9-4.8-10.3-4.7a13.59,13.59,0,0,0,9.2,8.8"/><path class="cls-3" d="M622.5,475.9h90.2a4.24,4.24,0,0,0,4.2-4.2V444.3a4.24,4.24,0,0,0-4.2-4.2H622.5a4.24,4.24,0,0,0-4.2,4.2v27.4a4.1,4.1,0,0,0,4,4.2Z"/><path class="cls-4" d="M657.2,449.8H678a1.54,1.54,0,0,0,1.5-1.5h0a1.54,1.54,0,0,0-1.5-1.5H657.2a1.54,1.54,0,0,0-1.5,1.5h0A1.54,1.54,0,0,0,657.2,449.8Z"/><path class="cls-3" d="M622.5,521.7h90.2a4.24,4.24,0,0,0,4.2-4.2V490.1a4.24,4.24,0,0,0-4.2-4.2H622.5a4.24,4.24,0,0,0-4.2,4.2v27.4a4.1,4.1,0,0,0,4,4.2Z"/><path class="cls-4" d="M657.2,495.6H678a1.54,1.54,0,0,0,1.5-1.5h0a1.54,1.54,0,0,0-1.5-1.5H657.2a1.54,1.54,0,0,0-1.5,1.5h0A1.54,1.54,0,0,0,657.2,495.6Z"/><path class="cls-3" d="M203.8,507.4H294a4.24,4.24,0,0,0,4.2-4.2V475.8a4.24,4.24,0,0,0-4.2-4.2H203.8a4.24,4.24,0,0,0-4.2,4.2v27.4a4.1,4.1,0,0,0,4,4.2Z"/><path class="cls-4" d="M238.5,481.2h20.8a1.54,1.54,0,0,0,1.5-1.5h0a1.54,1.54,0,0,0-1.5-1.5H238.5a1.54,1.54,0,0,0-1.5,1.5h0a1.47,1.47,0,0,0,1.44,1.5Z"/><path class="cls-3" d="M319.6,507.4h90.2a4.24,4.24,0,0,0,4.2-4.2V475.8a4.24,4.24,0,0,0-4.2-4.2H319.6a4.24,4.24,0,0,0-4.2,4.2v27.4a4.1,4.1,0,0,0,4,4.2Z"/><path class="cls-4" d="M354.3,481.2h20.8a1.54,1.54,0,0,0,1.5-1.5h0a1.54,1.54,0,0,0-1.5-1.5H354.3a1.54,1.54,0,0,0-1.5,1.5h0a1.47,1.47,0,0,0,1.44,1.5Z"/><path class="cls-3" d="M737.4,475.9h90.2a4.24,4.24,0,0,0,4.2-4.2V444.3a4.24,4.24,0,0,0-4.2-4.2H737.4a4.24,4.24,0,0,0-4.2,4.2v27.4A4.24,4.24,0,0,0,737.4,475.9Z"/><path class="cls-4" d="M772.2,449.8H793a1.54,1.54,0,0,0,1.5-1.5h0a1.54,1.54,0,0,0-1.5-1.5H772.2a1.54,1.54,0,0,0-1.5,1.5h0a1.47,1.47,0,0,0,1.44,1.5Z"/><path class="cls-3" d="M737.4,521.7h90.2a4.24,4.24,0,0,0,4.2-4.2V490.1a4.24,4.24,0,0,0-4.2-4.2H737.4a4.24,4.24,0,0,0-4.2,4.2v27.4A4.24,4.24,0,0,0,737.4,521.7Z"/><path class="cls-4" d="M772.2,495.6H793a1.54,1.54,0,0,0,1.5-1.5h0a1.54,1.54,0,0,0-1.5-1.5H772.2a1.54,1.54,0,0,0-1.5,1.5h0a1.47,1.47,0,0,0,1.44,1.5Z"/><path class="cls-3" d="M72.4,359.9h455a4.65,4.65,0,0,0,4.6-4.6V275.6a4.65,4.65,0,0,0-4.6-4.6H72.4a4.65,4.65,0,0,0-4.6,4.6v79.7A4.65,4.65,0,0,0,72.4,359.9Z"/><path class="cls-3" d="M72.4,458.8h455a4.65,4.65,0,0,0,4.6-4.6V374.5a4.65,4.65,0,0,0-4.6-4.6H72.4a4.65,4.65,0,0,0-4.6,4.6v79.7A4.65,4.65,0,0,0,72.4,458.8Z"/><rect class="cls-3" x="491.48" y="309.6" width="9.9" height="50.3"/><rect class="cls-3" x="481.24" y="323.21" width="10.3" height="36.6"/><rect class="cls-3" x="193.1" y="408.34" width="9.9" height="50.3"/><rect class="cls-3" x="182.86" y="422.05" width="10.3" height="36.6"/><rect class="cls-3" x="213.29" y="408.34" width="9.9" height="50.3"/><rect class="cls-5" x="230.36" y="407.61" width="9.9" height="50.3" transform="translate(-119.36 90.91) rotate(-17.52)"/><rect class="cls-3" x="203.04" y="422.05" width="10.3" height="36.6"/><rect class="cls-3" x="326.68" y="309.6" width="9.9" height="50.3"/><rect class="cls-3" x="316.43" y="323.21" width="10.3" height="36.6"/><rect class="cls-3" x="424.4" y="309.6" width="9.9" height="50.3"/><rect class="cls-5" x="441.49" y="308.8" width="9.9" height="50.3" transform="translate(-79.82 149.89) rotate(-17.52)"/><rect class="cls-3" x="414.16" y="323.21" width="10.3" height="36.6"/><path class="cls-4" d="M193.3,316.1l-1.1-14.9a1.64,1.64,0,0,1,1.49-1.79h8.81a1.7,1.7,0,0,1,1.7,1.72v.08l-1.1,14.9s9,5.8,8.9,10.6c-.1,3.7-2.3,21.4-3.3,29.2a4.32,4.32,0,0,1-4.3,3.8H192a4.32,4.32,0,0,1-4.3-3.8c-1-7.8-3.2-25.5-3.3-29.2C184.3,321.9,193.3,316.1,193.3,316.1Z"/><line class="cls-3" x1="854.3" y1="540.6" x2="-102.9" y2="531.1"/></g><path class="cls-6" d="M501.4,396,481.9,551.8a2.84,2.84,0,0,0,2.46,3.18l.34,0h0a2.8,2.8,0,0,0,2.8-2.4l22.3-152.7Z"/><path class="cls-6" d="M562,418.3l19.5,155.8a2.84,2.84,0,0,1-2.46,3.18l-.34,0h0a2.8,2.8,0,0,1-2.8-2.4L553.6,422.2Z"/><path class="cls-6" d="M467.4,412.2,441.2,567a2.86,2.86,0,0,0,2.36,3.27l.34,0h0a2.8,2.8,0,0,0,2.9-2.3l28.9-151.6Z"/><path class="cls-6" d="M540.8,396.7,555.2,553a2.83,2.83,0,0,0,3.09,2.55l.31,0h0a2.78,2.78,0,0,0,2.2-2.9l-10.9-154Z"/><path class="cls-7" d="M582.5,257.6c-10.9-1.8-47,124.6-47,124.6h34.7s-17,20.3-17.6,22.2-6.8,27.6-6.8,27.6c41.5-13.2,32.3-49.9,32.3-49.9-8.9-27.5,3.5-62.7,8.8-91.8S582.5,257.6,582.5,257.6Z"/><path class="cls-7" d="M453.9,425.3s.9,13.7,36.6,15.7,81.7-1.5,87.7-42C578.3,399,461.1,413.9,453.9,425.3Z"/><path class="cls-8" d="M569.4,379.4c-9.7-35.4,27.8-114.5,13.2-121.9-15-7.5-72.6-4.4-88.1,9-14.5,12.6-21.1,106-21.9,117.8a4.83,4.83,0,0,0-.1,1.2c0,7-1,18.8-6.1,22.5-9.9,7.2-26.2,18.1,5,26.1,0,0,13.5,3.1,52,1.5,52.1-2.2,46.9-34.3,46.8-53.5A5.62,5.62,0,0,0,569.4,379.4Z"/><path class="cls-9" d="M430.2,559s4.4,21,5.4,22.7,8.5,5.4,18.7,2.4,10.5-6.8,10.5-6.8-2-24.1-2-26.8S428.5,543,430.2,559Z"/><path class="cls-10" d="M463.8,565.8c-.5-6.6-1.1-13.9-1.1-15.3,0-2.7-34.3-7.5-32.6,8.5,0,0,.7,3.2,1.5,7.2A58.73,58.73,0,0,0,463.8,565.8Z"/><path class="cls-11" d="M434.5,578.1s-1.2,1.9-1.2,11.8-15,32.3-14,38.4,43.2,7.6,47,3.1-.2-37.7.1-41.2,1.6-10.1-1.8-14.3c0,0-3.5,3.5-6.3,4.1s-5.4-5.1-10.9-6.1-9.1,5.5-9.7,6.1S434.7,579.8,434.5,578.1Z"/><path class="cls-12" d="M436.3,601.5s8.5-5.9,22,.8"/><path class="cls-12" d="M433,610.9s11.8-8.3,25.4,1.7"/><path class="cls-9" d="M538.9,570.4s6.8,19,10.5,22.4,13.6,3.7,20.4,0,6.5-9.3,6.5-9.3-5.9-31.1-7.2-31.9S538.9,561.3,538.9,570.4Z"/><path class="cls-10" d="M538.9,570.4s1.7,4.7,3.8,9.9c11.6,2,21.7-1.9,31.5-7.5-1.8-9.1-4.3-20.7-5.1-21.2C567.7,550.7,538.9,561.3,538.9,570.4Z"/><path class="cls-11" d="M546.3,587.5s-.9.3,1.7,8.7c1.3,4.5-13.1,27.6-12.8,33.3s12.3,6.7,21.8,7c14.5.4,24-2.5,24.8-11.8s-1.7-27.4-1.7-31.4-1.3-8.6-4.6-14c0,0,.3,7.5-2.7,8.9s-8.6-4-12.9-2.9-6.1,4.4-7.9,6.3S546.8,588.6,546.3,587.5Z"/><path class="cls-12" d="M550.7,606.9s7.8-7.8,21.5-1.8"/><path class="cls-12" d="M546.4,615.8s12.3-10.2,25.7-.8"/><path class="cls-11" d="M468.7,380.1s-45.9,25.3-58,48.5,6.8,97.1,6.5,112.7,1.7,17.9,10.4,21.2,27.6,2.6,35.5-3.3c10.2-7.6,5.5-21.5,3.2-38.3s-3.4-66.4-3.4-66.4,21.6-17.5,32.2-22.7a17.49,17.49,0,0,1,6.5-1.7,4.7,4.7,0,0,1,5,4.38,4.92,4.92,0,0,1-.18,1.62c-2.6,9.2-6.3,32.3-4.8,42.9,1.4,9.9,8.3,34.4,21.8,75.9,2.7,8.2,3.6,14.8,6.9,17.6,13.9,11.7,44.1-.8,47.3-11.7,1.3-4.5-2-19.8-6.3-36.5-6.1-23.9-14.3-50.7-13.7-53.6,1-4.9,13.9-49.9,10.5-70.1C559.9,351.7,522,371.4,468.7,380.1Z"/><ellipse class="cls-13" cx="425.1" cy="442.7" rx="15.1" ry="16.5"/><ellipse class="cls-14" cx="522.95" cy="479.17" rx="15.6" ry="16.6" transform="translate(-60.4 75.71) rotate(-7.83)"/><path class="cls-13" d="M462.9,454.5s-.6-6.2-2.5-9.5"/><path class="cls-13" d="M502.9,429.8s1.1-6.9-.7-8.9"/><path class="cls-13" d="M490.5,421.7s7.4-.6,23.4,0"/><path class="cls-15" d="M474.6,278.4s-5.8,2.1-14.8,15.7a171.63,171.63,0,0,1-16.5,21.3s-10.3-11.3-21.1-18.5-23.1-18.5-23.1-18.5S391,274,385.9,280s-2.5,14.7-2.5,14.7,12.1,16.4,29.9,37.8c11.6,14,23.4,24,33.3,20.9,13.2-4.1,39.2-27.7,43.7-37.1S491.4,275,474.6,278.4Z"/><path class="cls-16" d="M443.2,315.4a33,33,0,0,1,5.3,9.9"/><path class="cls-9" d="M399.5,278.9s-8-6.6-13.7-6c-7.4.8-7.3-.9-12,.1-2.2.5-6.2,2.1-10.4,7.3a64.89,64.89,0,0,0-5.7,7.9s-4.4-9.4-7.1-7.9,3.7,15.9,5.9,17.4,8.7-1.1,11,0,8.5-.9,8.5-.9l8.5-2.1,2.2,2.4a2.64,2.64,0,0,0,2.8.7,14.08,14.08,0,0,0,7.6-7.4C400.6,283.1,399.5,278.9,399.5,278.9Z"/><path class="cls-17" d="M357.7,288.2s-4.4-9.4-7.1-7.9,3.7,15.9,5.9,17.4,8.7-1.1,11,0"/><path class="cls-9" d="M389.2,285.3s-2.9,7.6-6.5,12.5-9,5.1-11.4,3.5.8-12.6,1.5-15.3,2.9-5.2,4.3-2.2c1.1,2.3-.5,7.8-.2,12.2"/><path class="cls-9" d="M372.6,300.4s-3.1,1.9-4.9,1.3-2.9-1.9-3.2-4.6.7-10.8.6-12.9,3.2-3.8,4.6,1,.7,9,1.6,10"/><path class="cls-9" d="M365.8,299a14.27,14.27,0,0,1-4.7,1.4c-2.4.2-3.5-1.4-4.3-6.3-.9-5.9-1.6-11.9.5-12.2s3.2,2.9,4,6.2,1.3,5.4,1.8,5.5"/><path class="cls-9" d="M374.8,272.9s-5.7.4-7.8.4-7.6-1.4-8.8.3,2.2,4.8,8.3,5.6S378.5,275.2,374.8,272.9Z"/><path class="cls-16" d="M389.2,302.4s7.9,2.6,13.4-5.3c4.9-7,3-13,3-13"/><path class="cls-16" d="M430.6,349.4s-1.9-2.3,3-3.7,24-2.2,21.7,3.3"/><path class="cls-17" d="M389.2,285.3s-2.9,7.6-6.5,12.5-9,5.1-11.4,3.5.8-12.6,1.5-15.3,2.9-5.2,4.3-2.2c1.1,2.3-.5,7.8-.2,12.2"/><path class="cls-17" d="M370.7,301.3a4.58,4.58,0,0,1-3,.4c-1.8-.6-2.9-1.9-3.2-4.6s.7-10.8.6-12.9,3.2-3.8,4.6,1c1,3.6.9,6.7,1.2,8.6"/><path class="cls-17" d="M365,299.3a11.46,11.46,0,0,1-3.9,1c-2.4.2-3.5-1.4-4.3-6.3-.9-5.9-1.6-11.9.5-12.2s3.2,2.9,4,6.2,1.3,5.4,1.8,5.5"/><path class="cls-17" d="M364.7,279a33.18,33.18,0,0,1,5.6-4.5"/><path class="cls-11" d="M485.6,225.1a24.39,24.39,0,0,1,.3-5.4c.8-4.2,2.9-13,6.4-15.9,5.2-4.3,8,2.1,8,2.1s3.6-4.7,7-4.2,5.2,4.5,5.2,4.5,5.5-4.5,8.8-2.3a10.34,10.34,0,0,1,4.2,5.6s3.5-4,7.2-2.4,4.4,11.1,4.4,11.1,3.7,2.1,4.5,9.4c.9,7.8-2.9,19.3-10.7,32.5,0,0-16.1-29-26.3-33.1s-10.1,3.5-13.3,3.7C488.5,230.8,486.1,230.5,485.6,225.1Z"/><path class="cls-15" d="M487.6,279.2s-12.5,1.5,2.1-11.7c12.6-11.4,54.6-8.2,60,1.6,4,7.3,9.1,26.8-7.9,38.5S495.2,306.9,487.6,279.2Z"/><path class="cls-7" d="M511.6,275.5s11.7-.5,21.5-.9,24.1-.2,32,10.6c9.1,12.3-4.6,54.7-6.6,65.5s5.7,23.8,5.3,32.7c-.2,5.1-6.6,18.5-35,21-32.1,2.9-60.4-3.7-63.5-22.2-2.1-12.4,6.1-21.1,3.3-41.3-1.5-10.6-3.4-44.9.2-54.6S478.4,273.4,511.6,275.5Z"/><path class="cls-9" d="M499.6,265.7s-1.4,11.1-2,14,1,11.1,12.6,11c12.5-.1,20.3-10.1,20.6-14.1s-.7-23.3,1-29.7-14.3-2.7-21.2,1.3S498.9,262.4,499.6,265.7Z"/><path class="cls-10" d="M520.3,264.8c-6.5,1.5-14.5,7.1-21.4,6-.2,1.7-.5,3.5-.7,5.1C507.4,277.4,516.1,271.6,520.3,264.8Z"/><path class="cls-15" d="M498.6,273.2s-1.6,11.5,8.1,17.2c0,0,11.2-1,19.4-9a15.94,15.94,0,0,0,4.7-11.5V269s15.7.2,20.2,4.9c8.6,9-26.7,23.3-45.9,26.3,0,0-17.8-9.9-22-20S497.2,273.6,498.6,273.2Z"/><path class="cls-16" d="M501.8,293.9a133.08,133.08,0,0,0-5.8,29.3"/><path class="cls-15" d="M498.3,324.4c.1-1.3-.6-5.3-1.9-5.4s-2.8,3.7-2.9,5a2.44,2.44,0,0,0,2.2,2.6,2.3,2.3,0,0,0,2.58-2A1.36,1.36,0,0,0,498.3,324.4Z"/><path class="cls-16" d="M513.5,294.2a130.93,130.93,0,0,0,1.1,29.8"/><path class="cls-15" d="M517.2,324.8c-.2-1.3-1.8-5-3.1-4.8s-1.9,4.2-1.7,5.5a2.49,2.49,0,0,0,2.8,2.1A2.53,2.53,0,0,0,517.2,324.8Z"/><path class="cls-15" d="M477,369.8a43.05,43.05,0,0,0,6.1-17.1,3.57,3.57,0,0,1,3.9-3.2c7.4.8,23.9,2.3,36.3,1.2a3.6,3.6,0,0,1,3.9,3.25V354c.4,4.3,2.3,11.6,9.7,18.7a3.09,3.09,0,0,1,1.1,2,69.64,69.64,0,0,1,1.3,14.9c-.4,6.9-46.8,11.6-62.8-2.6a3.76,3.76,0,0,1-1.2-2.8c.1-2.7.5-8.3,1.2-12.9A4.22,4.22,0,0,1,477,369.8Z"/><path class="cls-9" d="M486.5,229.8s-.2,9.8-1.1,18.2,0,19.6,13.5,23.1,26.6-6.7,31.5-20.1,5.1-31.5-12.1-38.6S487.3,214.2,486.5,229.8Z"/><path class="cls-11" d="M536.8,238.4c-1.3,6.3-2.2,9.7-2.2,9.7l-4.2-4.4s-7.2-1-8.2-13.9a6.35,6.35,0,0,0-3.4-5.2c-5.9-3.1-9,1.5-20.5.7-3.9-.3-9.9-.9-9.7-6.9.5-15.6,24.6-14.4,36-7.3S538.1,232.2,536.8,238.4Z"/><path class="cls-9" d="M525.6,244.6s2.6-5.9,6.9-5.3c4.6.6,5,14.4-6.9,15.2"/><path class="cls-11" d="M492.8,236.9a18.74,18.74,0,0,1,.1,4.1,14,14,0,0,1-.8,4.1c-.1.3-.3.7-.4,1s-.2.5-.3.8a1.88,1.88,0,0,0,.1,1.3,5.1,5.1,0,0,0,2.9,2.1,4.11,4.11,0,0,1-2.2,0,3.7,3.7,0,0,1-2-1.3,2.73,2.73,0,0,1-.6-1.2,2.85,2.85,0,0,1,0-1.3,9,9,0,0,1,.8-1.9C491.4,242.1,491.9,239.5,492.8,236.9Z"/><path class="cls-16" d="M498.4,258.5s.7-1.5,2.4-.2,2.4.8,3.3-.3,1.3,1,3.3.2"/><path class="cls-11" d="M507,234.4a2.68,2.68,0,0,1,1.18-3.6l.22-.1c2-.9,5.3.6,7.2,2.6s.9,3-1.4,2-3.3-1.2-5.3-.5A1.57,1.57,0,0,1,507,234.4Z"/><path class="cls-11" d="M492.8,233.4a2.66,2.66,0,0,0-.7-3.4c-1.4-1-3.7,0-4.9,1.6-1.1,1.4-.6,2.2.9,1.8s2.1-.6,3.4.2A1,1,0,0,0,492.8,233.4Z"/><path class="cls-11" d="M532.8,244.8a3.1,3.1,0,0,0-1.1-.4.45.45,0,0,0-.5.3,4.8,4.8,0,0,0-.4,1.9,6.37,6.37,0,0,1-.7,2.7,2,2,0,0,1-1.3.9,1.66,1.66,0,0,1-.7.1c-.2,0-.5-.1-.7-.1.8-.5,1.4-1,1.4-1.5s.1-1.3.2-2.2a3.9,3.9,0,0,1,1.2-2.7,1.52,1.52,0,0,1,.9-.4,2,2,0,0,1,.9.2A2.79,2.79,0,0,1,532.8,244.8Z"/><path class="cls-11" d="M490.2,242.1h0a1.4,1.4,0,0,0,1.59-1.18s0-.08,0-.12l.1-.9a1.4,1.4,0,0,0-1.18-1.59h-.12a1.4,1.4,0,0,0-1.59,1.18s0,.08,0,.12l-.1.9a1.38,1.38,0,0,0,1.14,1.58Z"/><path class="cls-11" d="M508.1,243.8h0a1.4,1.4,0,0,0,1.59-1.18s0-.08,0-.12l.1-.9a1.4,1.4,0,0,0-1.18-1.59h-.12a1.4,1.4,0,0,0-1.59,1.18s0,.08,0,.12l-.1.9A1.52,1.52,0,0,0,508.1,243.8Z"/><path class="cls-15" d="M559.7,282.9a8.62,8.62,0,0,1,6.2,2.5c2,1.9,6.2,5.9,14.4,13.6,13.2,12.5,15,14.9,15,14.9s11.6,9.1,12.8,20.4-6.4,26.5-26.2,13.8-29.4-21.2-33.4-29.8C544.9,310.6,547,283.2,559.7,282.9Z"/><path class="cls-15" d="M589.4,324.8a69.47,69.47,0,0,1,14.9-20.3c10.4-9.9,22.7-22.1,25-24.5s7.9-7.9,15.5-2,3.2,16.2,3.2,16.2-13.3,21.4-24.3,39.6-22.2,24.2-36.4,17.3S589.4,324.8,589.4,324.8Z"/><path class="cls-9" d="M629.3,281.5s5.7-7.7,8-10.4,6.5-6.8,12-5.2,8.4-1.8,12.6,2.6S669,281,671.7,284s2,3.8,6.3,3.7,7.8.9,6,3.3-13.5,3-15.1,2.8-9.1.8-11-.1-1.6-.1-3.2-1-5.7-2.9-5.7-2.9a21.25,21.25,0,0,1-3,4.4c-1.7,1.8-9.1,1.5-13.9-4.1C628,285.3,629.3,281.5,629.3,281.5Z"/><path class="cls-17" d="M671.7,284.1c2.7,3,2,3.8,6.3,3.7s7.8.9,6,3.3-13.5,3-15.1,2.8"/><path class="cls-9" d="M655.1,290.6c.2-5.3,1.9-9.5,3.5-8.9s2.5,11.9-1.3,14.5-14-11.4-16-12.3"/><path class="cls-9" d="M656.8,295.3s2.1,4.1,5.2,2.1,6.2-11.2,6.8-13.2-3.2-2.8-5.7,2.1-4.3,5.6-4.3,5.6"/><path class="cls-9" d="M662.8,295.7a4,4,0,0,0,4.5,1.8c3.1-.8,7.1-7,9-9s-.5-4.6-3.8-2.2-5.7,4.7-7.3,5.2"/><path class="cls-9" d="M660.5,267.4s2.4,1.2,5.5,5.4,9.1,4.8,9.8,7-5.6,3.1-10.6.7S658.3,267.9,660.5,267.4Z"/><path class="cls-16" d="M623,286.3a13.47,13.47,0,0,0,4.7,12.3,14.67,14.67,0,0,0,15.6,3"/><path class="cls-16" d="M587.2,351s-2.3-3.4,5.3-5.1,20.5-2.6,19.2,2.6"/><path class="cls-17" d="M655.1,290.6c.2-5.3,1.9-9.5,3.5-8.9s2.5,11.9-1.3,14.5-14-11.4-16-12.3"/><path class="cls-17" d="M662,297.4c3.1-1.9,6.2-11.2,6.8-13.2s-3.2-2.8-5.7,2.1a17.23,17.23,0,0,1-3.4,5"/><path class="cls-17" d="M663.6,296.6a3.81,3.81,0,0,0,3.7.8c3.1-.8,7.1-7,9-9s-.5-4.6-3.8-2.2c-2.6,1.8-4.6,3.7-6.1,4.6"/><path class="cls-17" d="M670.2,281.9s-2.7-4.6-3.7-5.9"/><path class="cls-16" d="M595.8,314.2s-5.6,6.5-6.8,14.3"/><path class="cls-15" d="M289.4,343.4H254.8a3.31,3.31,0,0,1-3-2.4l-5-20.7A1.86,1.86,0,0,1,248,318a1.93,1.93,0,0,1,.67-.08h34.6a3.31,3.31,0,0,1,3,2.4l5,20.7a1.86,1.86,0,0,1-1.23,2.32A1.93,1.93,0,0,1,289.4,343.4Z"/><path class="cls-16" d="M247.3,318.4l19.6,11a3.31,3.31,0,0,0,3.8,0l14.3-11"/><path class="cls-18" d="M763.6,345.3l-78.8-4.7a2.9,2.9,0,0,1-2.74-3.05,2.69,2.69,0,0,1,.14-.75l22-69.9a4.86,4.86,0,0,1,4.1-3.3l82.2-6a2.9,2.9,0,0,1,3.14,2.64,3,3,0,0,1-.14,1.16L768.3,342A4.53,4.53,0,0,1,763.6,345.3Z"/><path class="cls-11" d="M760.7,343.5l-78.8-4.7a2.9,2.9,0,0,1-2.74-3.05,2.69,2.69,0,0,1,.14-.75l22-69.9a4.86,4.86,0,0,1,4.1-3.3l82.2-6a2.9,2.9,0,0,1,3.14,2.64,3,3,0,0,1-.14,1.16l-25.2,80.6A4.53,4.53,0,0,1,760.7,343.5Z"/><path class="cls-7" d="M720.3,275.3l-13.9.7a.7.7,0,0,1-.73-.67.85.85,0,0,1,0-.23l1-3.2a1.17,1.17,0,0,1,1.1-.8l14-.8a.7.7,0,0,1,.73.67.85.85,0,0,1,0,.23l-1.1,3.3A1.54,1.54,0,0,1,720.3,275.3Z"/><path class="cls-7" d="M691.3,329.6h0a2.18,2.18,0,0,1-2.08-2.29,1.81,1.81,0,0,1,.08-.51l6.6-20.8a2.13,2.13,0,0,1,2-1.5h0a2.12,2.12,0,0,1,2.12,2.1,2.06,2.06,0,0,1-.12.7l-6.6,20.8A1.8,1.8,0,0,1,691.3,329.6Z"/><path class="cls-18" d="M701.2,330h0a2.18,2.18,0,0,1-2.12-2.24,2.14,2.14,0,0,1,.12-.66l10.6-33.7a2.38,2.38,0,0,1,2.1-1.6h0a2.29,2.29,0,0,1,2.29,2.27,2.18,2.18,0,0,1-.09.63l-10.6,33.7A2.22,2.22,0,0,1,701.2,330Z"/><path class="cls-7" d="M711.4,330.5h0a2.34,2.34,0,0,1-2.19-2.48,2.27,2.27,0,0,1,.09-.52l4.4-13.9a2.24,2.24,0,0,1,2.2-1.6h0a2.37,2.37,0,0,1,2.29,2.43,2.82,2.82,0,0,1-.09.57l-4.4,13.9A2.37,2.37,0,0,1,711.4,330.5Z"/><path class="cls-15" d="M722,330.9h0a2.42,2.42,0,0,1-2.29-2.56,2.54,2.54,0,0,1,.09-.54L732.3,288a2.47,2.47,0,0,1,2.2-1.7h0a2.38,2.38,0,0,1,2.3,3.1l-12.5,39.8A2.23,2.23,0,0,1,722,330.9Z"/><path class="cls-18" d="M732.9,331.4h0a2.58,2.58,0,0,1-2.37-2.77,3,3,0,0,1,.07-.43l8.2-26.2a2.46,2.46,0,0,1,2.3-1.7h0a2.48,2.48,0,0,1,2.51,2.43,2.52,2.52,0,0,1-.11.77l-8.2,26.2A2.49,2.49,0,0,1,732.9,331.4Z"/><path class="cls-19" d="M744.3,331.9h0a2.51,2.51,0,0,1-2.42-2.61,2.63,2.63,0,0,1,.12-.69l1.7-5.6a2.57,2.57,0,0,1,2.5-1.8h0a2.55,2.55,0,0,1,2.51,2.59,2.45,2.45,0,0,1-.11.71l-1.7,5.6A2.81,2.81,0,0,1,744.3,331.9Z"/><path class="cls-7" d="M756,332.4h0a2.67,2.67,0,0,1-2.5-2.83,2.84,2.84,0,0,1,.1-.57l8.5-27a2.66,2.66,0,0,1,2.5-1.9h0a2.67,2.67,0,0,1,2.7,2.64,2.78,2.78,0,0,1-.1.76l-8.5,27A2.8,2.8,0,0,1,756,332.4Z"/><path class="cls-18" d="M767.2,270.3c.2-.7-.1-1.3-.6-1.3s-1.2.6-1.5,1.4.1,1.3.6,1.3A2.08,2.08,0,0,0,767.2,270.3Z"/><path class="cls-18" d="M772.4,270c.2-.7-.1-1.3-.7-1.3a1.92,1.92,0,0,0-1.5,1.4c-.2.7.1,1.3.7,1.3A2.08,2.08,0,0,0,772.4,270Z"/><path class="cls-18" d="M777.7,269.7c.2-.7-.1-1.3-.7-1.3a1.92,1.92,0,0,0-1.5,1.4c-.2.7.1,1.3.7,1.3A1.92,1.92,0,0,0,777.7,269.7Z"/><path class="cls-20" d="M466.4,193.7s-7.2.3-9-6.3,5-9.6,5-3.4-9.7,8.9-13.7,3.7.7-9.2,2-6.2-1.8,9.3-7.5,7.4"/><path class="cls-20" d="M552.4,204s12.3-.7,11.5-9.6-8.8,7.6,1.9,7.4,10.1-10.3,6.9-11-2.4,7.1,3.5,6.6,6.8-4.1,6.8-4.1"/><path class="cls-15" d="M511.8,186.7a3.4,3.4,0,1,0-3.4,3.4h0a3.37,3.37,0,0,0,3.4-3.34Z"/><path class="cls-7" d="M528.2,149.8a19.93,19.93,0,0,1-5.2,14.9,22.18,22.18,0,0,0-5.9,15.1v3.5a3.54,3.54,0,0,1-3.5,3.5H503.4a3.54,3.54,0,0,1-3.5-3.5v-3.5a21.81,21.81,0,0,0-5.9-15,19.78,19.78,0,1,1,34.2-15Z"/><line class="cls-16" x1="499.8" y1="179.8" x2="517" y2="179.8"/><line class="cls-16" x1="499.8" y1="183.2" x2="517" y2="183.2"/><path class="cls-16" d="M506.6,179.8V152.4a3.15,3.15,0,0,0-4.9-2.6h0a3.17,3.17,0,0,0-.74,4.41,3.42,3.42,0,0,0,.44.49l1.2,1.1"/><path class="cls-16" d="M510.2,179.8V152.4a3.15,3.15,0,0,1,4.9-2.6h0a3.17,3.17,0,0,1,.74,4.41,3.42,3.42,0,0,1-.44.49l-1.2,1.1"/><path class="cls-18" d="M428.2,255.3l-8.8-80.6a5.41,5.41,0,0,0-4.6-4.7L300.7,155.1a4.06,4.06,0,0,0-4.5,3.57,3.62,3.62,0,0,0,0,.93l11.2,96.1a5.31,5.31,0,0,0,5.3,4.7l111.4-.6a4,4,0,0,0,4.13-3.87A3.33,3.33,0,0,0,428.2,255.3Z"/><path class="cls-11" d="M433.3,254.9l-8.8-81.2a5.3,5.3,0,0,0-4.6-4.7L305,154a4.13,4.13,0,0,0-4.59,3.61,3.79,3.79,0,0,0,0,.89l11.3,96.8A5.31,5.31,0,0,0,317,260l112.3-.6a4.08,4.08,0,0,0,4-4.14C433.32,255.14,433.31,255,433.3,254.9Z"/><path class="cls-7" d="M418.8,246.9H327.4l-.3-3,19.3-27.2a8.57,8.57,0,0,1,10.4-3l8.8,3.6a8.72,8.72,0,0,0,10.7-3.5l3.9-6.4a8.66,8.66,0,0,1,10.5-3.6,8.59,8.59,0,0,0,10-2.8l12-15.7Z"/><line class="cls-20" x1="327.1" y1="243.9" x2="320.2" y2="184.1"/><path class="cls-20" d="M326.8,241.2l15.7-41A8.14,8.14,0,0,1,353,195.42l.21.08,8.1,3.2a8.37,8.37,0,0,0,9.4-2.4l5.4-6.6a8.12,8.12,0,0,1,11.43-1.21l.37.31h0a8.13,8.13,0,0,0,9.9.8l14.6-9.3"/><path class="cls-15" d="M319.5,176.2l-.6-4.8a1.16,1.16,0,0,1,1-1.3h.3l21.7,2.3a1.49,1.49,0,0,1,1.3,1.2l.7,4.4a.86.86,0,0,1-.69,1,.81.81,0,0,1-.31,0l-22.1-1.6a1.23,1.23,0,0,1-1.3-1.16Z"/><path class="cls-21" d="M673.4,222.6c-23.1,22.4-51.8,26.8-62.2,11.4-9.2-13.6-.5-37.8,18.3-55.3,18.5-17.2,42.9-24.3,56.1-15.2C700.5,173.7,696.1,200.6,673.4,222.6Z"/><path class="cls-7" d="M670.1,219.2c-23.1,22.4-51.8,26.8-62.2,11.4-9.2-13.6-.5-37.8,18.3-55.3,18.5-17.2,42.9-24.3,56.1-15.2C697.3,170.4,692.8,197.3,670.1,219.2Z"/><path class="cls-15" d="M660.4,209.5c-13.9,13.3-31.3,16.6-38.3,7.7-6.4-8.2-1.3-23.7,10.9-35.1s27.8-15.6,35.9-9.2C677.6,179.7,674.1,196.3,660.4,209.5Z"/><path class="cls-19" d="M651.5,200.6c-5.5,5.2-12.5,6.7-15.5,3.4s-1-9.7,4.2-14.6,11.9-6.5,15.1-3.6S657,195.4,651.5,200.6Z"/><path class="cls-11" d="M616,167h0a5.22,5.22,0,0,1-7.38-.28l0,0L590.8,144a2.91,2.91,0,0,1,.3-3.9h0a2.91,2.91,0,0,1,3.9,0l21.2,19.5a5.05,5.05,0,0,1,.07,7.14A3.31,3.31,0,0,1,616,167Z"/><path class="cls-15" d="M594.9,148.3l-5.7.8a1.84,1.84,0,0,0-1.62,2,1.81,1.81,0,0,0,.62,1.18h0a25.17,25.17,0,0,0,12.4,5.9l2.9.5a.39.39,0,0,0,.46-.31.38.38,0,0,0-.06-.29l-7.2-9.1A2.11,2.11,0,0,0,594.9,148.3Z"/><path class="cls-15" d="M599.1,144.5l1.3-5.6a1.86,1.86,0,0,1,3.3-.7h0a24.67,24.67,0,0,1,4.9,12.8l.2,2.9c0,.3-.4.5-.6.3l-8.5-7.8A1.87,1.87,0,0,1,599.1,144.5Z"/><line class="cls-16" x1="615.2" y1="166.1" x2="620.9" y2="172.2"/><path class="cls-15" d="M735.3,218.7V204.1a1.32,1.32,0,0,0-1.3-1.3h-6.6a1.32,1.32,0,0,0-1.3,1.3v14.6h-3.8A1.25,1.25,0,0,0,721,220a1.15,1.15,0,0,0,.17.65l8.3,13.1a1.22,1.22,0,0,0,1.67.43,1.18,1.18,0,0,0,.43-.43l8.3-13.1a1.27,1.27,0,0,0-.45-1.73,1.31,1.31,0,0,0-.65-.17Z"/><path class="cls-11" d="M764.3,234.5V219.9a1.32,1.32,0,0,0-1.3-1.3h-6.6a1.32,1.32,0,0,0-1.3,1.3v14.6h-3.8a1.25,1.25,0,0,0-1.27,1.25,1.15,1.15,0,0,0,.17.65l8.3,13.1a1.22,1.22,0,0,0,1.67.43,1.18,1.18,0,0,0,.43-.43l8.3-13.1a1.27,1.27,0,0,0-.45-1.73,1.31,1.31,0,0,0-.65-.17Z"/><path class="cls-11" d="M286.6,292.1a3.46,3.46,0,1,0-4.21,2.5h0a3.44,3.44,0,0,0,4.19-2.45Z"/><path class="cls-15" d="M290.8,283.9l.2-.9a5.51,5.51,0,0,0-3.9-6.7h0a5.51,5.51,0,0,0-6.7,3.9l-.2.9a7.19,7.19,0,0,1-1.5,2.7c-.6.6-1.2,1.3-1.8,1.9a2.58,2.58,0,0,0,.2,3.64,2.61,2.61,0,0,0,1,.56l5,1.3,5,1.3a2.52,2.52,0,0,0,3.08-1.79,2.61,2.61,0,0,0,0-1.21c-.2-.9-.4-1.8-.6-2.6A7.79,7.79,0,0,1,290.8,283.9Z"/><path class="cls-7" d="M193.9,247.4s37.4-8.5,36.8-28.3l57.2,4.5s-.7,24.3-38,36.7C249.8,260.3,210.1,255,193.9,247.4Z"/><line class="cls-16" x1="241.8" y1="246.5" x2="251.9" y2="247.9"/><line class="cls-16" x1="246" y1="242.5" x2="257.7" y2="244.1"/><path class="cls-16" d="M236,232.9s25.8,3.6,30.4,4.2"/><path class="cls-11" d="M240.6,239.1a25.08,25.08,0,0,1-10.6,8.6,2,2,0,0,1-.8.1c-3.9-.8-7.9-1.7-11.7-2.7a.58.58,0,0,1-.44-.69.57.57,0,0,1,.34-.41,45.32,45.32,0,0,0,11.7-7.2,1,1,0,0,1,1-.3c2.1.4,5.7.9,10.1,1.6C240.6,238.3,240.9,238.8,240.6,239.1Z"/><path class="cls-15" d="M257.6,227.7a18.18,18.18,0,0,1-.8,2.7.76.76,0,0,1-.9.5l-19.5-2.1a.86.86,0,0,1-.77-.94.77.77,0,0,1,.07-.26,8,8,0,0,0,.6-2.2,1,1,0,0,1,.9-.7l19.6,1.8C257.3,226.8,257.7,227.2,257.6,227.7Z"/><path class="cls-21" d="M597.1,258c-3.9,8.5-13.3,14.1-19.7,12.4-5.6-1.5-6.7-8.2-3.1-14.8,3.4-6.4,10.5-11.4,16.5-11.6C597.5,243.9,600.8,250,597.1,258Z"/><path class="cls-7" d="M595.1,256.3c-3.9,8.5-13.3,14.1-19.7,12.4-5.6-1.5-6.7-8.2-3.1-14.8,3.4-6.4,10.5-11.4,16.5-11.6C595.6,242.1,598.8,248.2,595.1,256.3Z"/><path class="cls-21" d="M591.9,256c-3,6.3-9.9,10.6-14.8,9.5-4.4-1-5.4-6.1-2.6-11.4,2.7-5,8.3-9,12.9-9C592.5,245.1,594.8,249.9,591.9,256Z"/><path class="cls-7" d="M578.6,261.4l.4-.7c.1-.3.1-.5-.1-.6a2.29,2.29,0,0,1-1.1-.7c-.1-.1-.1-.4.1-.7l.1-.1c.2-.3.6-.4.7-.2a2.48,2.48,0,0,0,3.51,0,2.45,2.45,0,0,0,.49-.7,1.55,1.55,0,0,0-.49-2.14l-.11-.06c-1.1-.8-1.6-1.7-.8-3.1a4.73,4.73,0,0,1,3.1-2.4.74.74,0,0,0,.6-.5l.4-.7a.86.86,0,0,1,.7-.5h0c.2,0,.3.2.2.5l-.3.6c-.1.3-.1.5.2.5a3.09,3.09,0,0,1,1,.4c.2.1.1.4-.1.7l-.1.1a.71.71,0,0,1-.8.3,2.44,2.44,0,0,0-3.5.9c-.4.8-.1,1.3.8,2a2.32,2.32,0,0,1,.85,3.17,1.14,1.14,0,0,1-.15.23,4.57,4.57,0,0,1-3.4,2.6.74.74,0,0,0-.6.5l-.4.8a1,1,0,0,1-.7.5h0C578.5,261.9,578.4,261.7,578.6,261.4Z"/><polygon class="cls-15" points="275.3 404.4 265.5 404.4 265 422.2 274.4 422.2 275.3 404.4"/><path class="cls-6" d="M265,422.2l-5.9,179.2a3.24,3.24,0,0,0,3,3.4h.25a3.28,3.28,0,0,0,3.3-3.1l8.7-179.5Z"/><polygon class="cls-15" points="761.6 404.4 751.9 404.4 752.7 422.2 762.2 422.2 761.6 404.4"/><path class="cls-6" d="M752.7,422.2l8.7,179.5a3.3,3.3,0,1,0,6.6-.3l-5.9-179.2Z"/><path class="cls-6" d="M301.4,380.1l-5.5,168.5a2.76,2.76,0,0,0,2.62,2.9h.18a2.78,2.78,0,0,0,2.8-2.7l8.2-168.7Z"/><path class="cls-6" d="M725.7,380.1l5.5,168.5a2.76,2.76,0,0,1-2.62,2.9h-.18a2.78,2.78,0,0,1-2.8-2.7l-8.2-168.7Z"/><polygon class="cls-8" points="789.3 400.6 237.8 400.6 295.6 373.1 731.6 373.1 789.3 400.6"/><rect class="cls-6" x="237.8" y="400.6" width="551.5" height="7.5"/><path class="cls-15" d="M689.8,374s-4.7-2.3-6.3-6.9,1.2-7.7,2.4-7.4,3,6.1,4.5,6.1,1.2-10.2,4.2-11.3,2.7,10.1,2.8,11c.2,2.3,4.1-2.7,5.5-4.7,1.7-2.5,7.2,6.5-4.3,13.2A25,25,0,0,1,689.8,374Z"/><path class="cls-11" d="M709.2,375.1v.4a52,52,0,0,1-3.4,17.4h0a2.62,2.62,0,0,1-2.3,1.6h-18a2.46,2.46,0,0,1-2.3-1.6h0a51.56,51.56,0,0,1-3.4-17.4v-.4a1.84,1.84,0,0,1,1.78-1.9H707.3a1.78,1.78,0,0,1,1.9,1.65A1,1,0,0,1,709.2,375.1Z"/><path class="cls-11" d="M641.6,367.7c-7.8.8-9.8,21.9-24.6,24,0,0-2.7.1-7.1.2-12.7.4-38.9,1-49.5.1a39.33,39.33,0,0,0,4.6-.3c4.6-.6,7.9-3.1,10.6-6.1,6-7,8.7-17.3,14-17.8h52Z"/><path class="cls-15" d="M575.5,385.6a16.6,16.6,0,0,1-10.6,6.1,39.33,39.33,0,0,1-4.6.3c-11.2,0-14.5-6.2-14.5-6.2S563.7,386.6,575.5,385.6Z"/><path class="cls-11" d="M499.9,394.1H427.3v-5.4h78a5.38,5.38,0,0,1-5.36,5.4Z"/><path class="cls-11" d="M442.9,394.1H331a8,8,0,0,1-7.7-6l-18.4-73.3a4.36,4.36,0,0,1,3.19-5.27,3.83,3.83,0,0,1,1-.13H421a8,8,0,0,1,7.7,6l18.4,73.3A4.31,4.31,0,0,1,444,394,4.25,4.25,0,0,1,442.9,394.1Z"/><ellipse class="cls-18" cx="369.48" cy="351.71" rx="7.3" ry="9.7" transform="translate(-138.4 399.37) rotate(-48.95)"/><path class="cls-11" d="M506,383.3H482.3a2.11,2.11,0,0,1-2.1-2.1h0a10.94,10.94,0,0,1,10.9-10.9h6A10.94,10.94,0,0,1,508,381.2h0a2,2,0,0,1-1.9,2.1Z"/><path class="cls-22" d="M650.4,385.7c-2.2-.4-5.8-1.5-7-5.5s7.9-12.7,10.7-12.7,7.9,2.8,10.6,6.6-2.3,6.2-1.7,8S658,387.2,650.4,385.7Z"/><path class="cls-22" d="M643.4,380.2s4.7,3.4,6.9,2.4,3.9-3.8,7.8-3.4,3.1-6.4,0-7.5-5.3,5.9-7.8,6-3.1-1.5-.8-3.3"/><path class="cls-22" d="M638.7,391.9s2.5-2.9,1.4-4.5-2-2.1-2.5-3c-.7-1.4-.6-4.4-2.2-5.9s-4.2.9-10.2.1c-4.6-.6-8.8,6.5-7.2,8.5a9.67,9.67,0,0,0,2.2,2.4s-.9,1.8-.4,2.9,4,2.7,9.3,3.2S638.7,391.9,638.7,391.9Z"/><path class="cls-22" d="M620.2,389.6s4.8,3.7,8.2,2.9,6.7-7,6.5-8.7-1.6-2.5-5,.6-6,2.3-5.7-.4"/></svg>