<svg xmlns="http://www.w3.org/2000/svg" xmlns:xlink="http://www.w3.org/1999/xlink" width="500" zoomAndPan="magnify" viewBox="0 0 375 374.999991" height="500" preserveAspectRatio="xMidYMid meet" version="1.0"><defs><g/></defs><path stroke-linecap="butt" transform="matrix(0.75, 0, 0, 0.75, -59.624958, 95.117747)" fill="none" stroke-linejoin="miter" d="M 165.281205 34.811757 C 169.505163 30.593007 174.541622 28.483631 180.390581 28.483631 C 186.275998 28.483631 191.328082 30.593007 195.546832 34.811757 C 199.77079 39.035715 201.880166 44.087799 201.880166 49.968008 C 201.880166 55.822175 199.77079 60.858634 195.546832 65.077384 C 191.328082 69.264884 186.275998 71.358634 180.390581 71.358634 C 174.541622 71.358634 169.505163 69.264884 165.281205 65.077384 C 161.062455 60.858634 158.953079 55.822175 158.953079 49.968008 C 158.953079 44.087799 161.062455 39.035715 165.281205 34.811757 Z M 161.843705 93.249261 L 161.843705 197.999268 L 197.98954 197.999268 L 197.98954 93.249261 Z M 204.317666 197.999268 L 204.317666 93.249261 L 240.46871 93.249261 L 240.46871 104.264886 L 240.864543 104.264886 C 250.270794 94.858636 260.276003 90.155511 270.88017 90.155511 C 278.494754 90.155511 285.640588 91.733636 292.317672 94.895094 C 298.999964 98.014886 304.036422 102.837803 307.427048 109.353428 C 318.062465 96.556553 329.645799 90.155511 342.17705 90.155511 C 353.312467 90.155511 362.901009 93.296136 370.947885 99.577386 C 378.989552 105.827387 383.010386 115.634679 383.010386 128.994055 L 383.010386 197.999268 L 346.86455 197.999268 L 346.86455 138.770097 C 346.86455 133.181555 345.317675 128.530513 342.229133 124.806554 C 339.171841 121.051346 334.583299 119.176346 328.468716 119.176346 C 323.151007 119.176346 319.093715 120.770096 316.302048 123.962804 C 313.510381 127.150305 311.979131 131.004472 311.713506 135.525305 L 311.713506 197.999268 L 275.56767 197.999268 L 275.56767 138.770097 C 275.56767 133.181555 274.03642 128.530513 270.979128 124.806554 C 267.921837 121.051346 263.333295 119.176346 257.218711 119.176346 C 251.635377 119.176346 247.447877 120.921138 244.65621 124.410721 C 241.864543 127.863846 240.46871 131.973222 240.46871 136.723222 L 240.46871 197.999268 Z M 386.276011 29.530507 L 446.505182 29.530507 C 462.729141 29.530507 475.942684 33.848215 486.145809 42.494049 C 496.348935 51.134675 501.453102 63.483634 501.453102 79.535718 C 501.453102 91.936761 498.343727 102.322178 492.130185 110.697179 C 485.942684 119.072179 477.552059 124.957596 466.947891 128.348221 L 524.93227 197.999268 L 476.124975 197.999268 L 424.671847 131.436763 L 424.671847 197.999268 L 386.276011 197.999268 Z M 424.671847 104.264886 L 429.156222 104.264886 C 432.682264 104.264886 435.671848 104.197178 438.130181 104.06697 C 440.588515 103.931553 443.380181 103.468011 446.505182 102.671136 C 449.630182 101.837803 452.140599 100.676345 454.036432 99.181553 C 455.963516 97.650303 457.609349 95.457594 458.973932 92.598219 C 460.333308 89.738844 461.015599 86.285719 461.015599 82.228427 C 461.015599 78.139885 460.333308 74.665926 458.973932 71.806551 C 457.609349 68.952384 455.963516 66.775301 454.036432 65.275301 C 452.140599 63.780509 449.630182 62.61905 446.505182 61.785717 C 443.380181 60.957592 440.588515 60.473217 438.130181 60.343009 C 435.671848 60.207592 432.682264 60.139884 429.156222 60.139884 L 424.671847 60.139884 Z M 536.583313 154.275306 C 543.098938 154.275306 548.635397 156.566973 553.18748 161.155515 C 557.776022 165.707599 560.067689 171.244058 560.067689 177.759683 C 560.067689 184.171142 557.776022 189.655517 553.18748 194.212809 C 548.635397 198.764893 543.098938 201.040934 536.583313 201.040934 C 530.171854 201.040934 524.687478 198.764893 520.130186 194.212809 C 515.578103 189.655517 513.302061 184.171142 513.302061 177.759683 C 513.302061 171.244058 515.578103 165.707599 520.130186 161.155515 C 524.687478 156.566973 530.171854 154.275306 536.583313 154.275306 Z M 536.583313 154.275306 " stroke="#101010" stroke-width="26.294226" stroke-opacity="1" stroke-miterlimit="4"/><g fill="#ffffff" fill-opacity="1"><g transform="translate(52.558628, 243.617737)"><g><path d="M 11.796875 -122.375 C 14.960938 -125.539062 18.738281 -127.125 23.125 -127.125 C 27.519531 -127.125 31.300781 -125.539062 34.46875 -122.375 C 37.632812 -119.21875 39.21875 -115.441406 39.21875 -111.046875 C 39.21875 -106.660156 37.632812 -102.882812 34.46875 -99.71875 C 31.300781 -96.550781 27.519531 -94.96875 23.125 -94.96875 C 18.738281 -94.96875 14.960938 -96.550781 11.796875 -99.71875 C 8.628906 -102.882812 7.046875 -106.660156 7.046875 -111.046875 C 7.046875 -115.441406 8.628906 -119.21875 11.796875 -122.375 Z M 9.1875 -78.578125 L 9.1875 0 L 36.296875 0 L 36.296875 -78.578125 Z M 9.1875 -78.578125 "/></g></g></g><g fill="#ffffff" fill-opacity="1"><g transform="translate(84.4162, 243.617737)"><g><path d="M 9.1875 0 L 9.1875 -78.578125 L 36.296875 -78.578125 L 36.296875 -70.3125 L 36.609375 -70.3125 C 43.648438 -77.351562 51.15625 -80.875 59.125 -80.875 C 64.84375 -80.875 70.203125 -79.695312 75.203125 -77.34375 C 80.210938 -75 83.992188 -71.375 86.546875 -66.46875 C 94.503906 -76.070312 103.179688 -80.875 112.578125 -80.875 C 120.953125 -80.875 128.148438 -78.523438 134.171875 -73.828125 C 140.203125 -69.128906 143.21875 -61.773438 143.21875 -51.765625 L 143.21875 0 L 116.109375 0 L 116.109375 -44.421875 C 116.109375 -48.609375 114.957031 -52.101562 112.65625 -54.90625 C 110.363281 -57.71875 106.914062 -59.125 102.3125 -59.125 C 98.332031 -59.125 95.296875 -57.921875 93.203125 -55.515625 C 91.109375 -53.117188 89.960938 -50.238281 89.765625 -46.875 L 89.765625 0 L 62.640625 0 L 62.640625 -44.421875 C 62.640625 -48.609375 61.488281 -52.101562 59.1875 -54.90625 C 56.894531 -57.71875 53.453125 -59.125 48.859375 -59.125 C 44.671875 -59.125 41.53125 -57.820312 39.4375 -55.21875 C 37.34375 -52.613281 36.296875 -49.523438 36.296875 -45.953125 L 36.296875 0 Z M 9.1875 0 "/></g></g></g><g fill="#ffffff" fill-opacity="1"><g transform="translate(220.884871, 243.617737)"><g><path d="M 9.1875 -126.359375 L 54.375 -126.359375 C 66.53125 -126.359375 76.4375 -123.113281 84.09375 -116.625 C 91.75 -110.144531 95.578125 -100.882812 95.578125 -88.84375 C 95.578125 -79.550781 93.253906 -71.765625 88.609375 -65.484375 C 83.960938 -59.203125 77.65625 -54.785156 69.6875 -52.234375 L 113.1875 0 L 76.578125 0 L 37.984375 -49.9375 L 37.984375 0 L 9.1875 0 Z M 37.984375 -70.3125 L 41.359375 -70.3125 C 44.015625 -70.3125 46.257812 -70.359375 48.09375 -70.453125 C 49.9375 -70.554688 52.03125 -70.914062 54.375 -71.53125 C 56.726562 -72.144531 58.617188 -73.007812 60.046875 -74.125 C 61.472656 -75.25 62.695312 -76.882812 63.71875 -79.03125 C 64.738281 -81.175781 65.25 -83.78125 65.25 -86.84375 C 65.25 -89.90625 64.738281 -92.507812 63.71875 -94.65625 C 62.695312 -96.800781 61.472656 -98.4375 60.046875 -99.5625 C 58.617188 -100.6875 56.726562 -101.550781 54.375 -102.15625 C 52.03125 -102.769531 49.9375 -103.128906 48.09375 -103.234375 C 46.257812 -103.335938 44.015625 -103.390625 41.359375 -103.390625 L 37.984375 -103.390625 Z M 37.984375 -70.3125 "/></g></g></g><g fill="#ffffff" fill-opacity="1"><g transform="translate(316.152397, 243.617737)"><g><path d="M 26.65625 -32.78125 C 31.550781 -32.78125 35.707031 -31.066406 39.125 -27.640625 C 42.550781 -24.222656 44.265625 -20.0625 44.265625 -15.15625 C 44.265625 -10.363281 42.550781 -6.253906 39.125 -2.828125 C 35.707031 0.585938 31.550781 2.296875 26.65625 2.296875 C 21.851562 2.296875 17.738281 0.585938 14.3125 -2.828125 C 10.894531 -6.253906 9.1875 -10.363281 9.1875 -15.15625 C 9.1875 -20.0625 10.894531 -24.222656 14.3125 -27.640625 C 17.738281 -31.066406 21.851562 -32.78125 26.65625 -32.78125 Z M 26.65625 -32.78125 "/></g></g></g></svg>